
<svg width="97px" height="135px" viewBox="0 0 97 135" version="1.1" xmlns="http://www.w3.org/2000/svg" xmlns:xlink="http://www.w3.org/1999/xlink">
    <!-- Generator: Sketch 45.1 (43504) - http://www.bohemiancoding.com/sketch -->
    <desc>Created with Sketch.</desc>
    <defs></defs>
    <g id="Page-1" stroke="none" stroke-width="1" fill="none" fill-rule="evenodd">
        <g id="404-M" transform="translate(-29.000000, -117.000000)">
            <g id="dropped-ice-cream" transform="translate(27.000000, 119.000000)">
                <path d="M4.69080394,130.280048 L94.688076,130.280048" id="Line" stroke="#000000" stroke-width="4" stroke-linecap="round"></path>
                <g id="ice-cream-cone">
                    <path d="M90.3191744,83.7387502 L87.1485086,0.0143274733 L54.8304013,35.1349629 L30.4948328,61.5811462 C30.4948328,61.5811462 16.7423828,62.0682803 15.4701135,70.8366939 C14.1978443,79.6047744 23.5457208,84.1332555 23.5457208,84.1332555 C23.5457208,84.1332555 11.8397763,96.499531 18.5410393,113.907078 C21.1526271,120.690303 24.7726234,126.066438 29.1605179,129.946518 L68.8577201,129.946851 C77.2959275,123.047673 82.6868932,112.811526 81.7712196,106.764666 C81.7712196,106.764666 91.7822507,108.286377 94.9505814,101.66875 C98.1185785,95.0511234 95.8842682,86.2603855 90.3191744,83.7387502 L90.3191744,83.7387502 Z" id="Stroke-1" stroke="#030404" stroke-width="4" stroke-linecap="round" stroke-linejoin="round"></path>
                    <path d="M30.494766,61.5810795 C36.4031124,63.8744749 38.0916879,68.9094155 38.0916879,68.9094155 C40.0631381,63.5985877 43.8058914,62.1418502 51.6473264,63.0618072 C59.4884278,63.9814311 59.6692275,74.0583096 59.6692275,74.0583096 C59.6692275,74.0583096 61.8761843,70.9669073 71.4755792,70.9845668 C81.0746405,71.0025594 80.9408755,84.7799244 80.9408755,84.7799244 C80.9408755,84.7799244 83.3649921,83.3971566 86.7154567,83.3035282 C87.8322783,83.2725409 89.0518421,83.3844951 90.3191077,83.7386836" id="Stroke-3" stroke="#030404" stroke-width="4" stroke-linecap="round" stroke-linejoin="round"></path>
                    <path d="M68.9454513,20.2131327 L88.6436085,62.8793485" id="Stroke-5" stroke="#030404" stroke-width="4" stroke-linecap="round" stroke-linejoin="round"></path>
                    <path d="M47.7458897,42.8339473 L61.2488228,70.3923423" id="Stroke-7" stroke="#030404" stroke-width="4" stroke-linecap="round" stroke-linejoin="round"></path>
                    <path d="M36.1437883,63.2402343 L87.8931898,40.1799994" id="Stroke-9" stroke="#030404" stroke-width="4" stroke-linecap="round" stroke-linejoin="round"></path>
                    <path d="M68.2983753,71.1048176 L88.6436752,62.8791819" id="Stroke-11" stroke="#030404" stroke-width="4" stroke-linecap="round" stroke-linejoin="round"></path>
                    <path d="M54.8305681,35.1348962 L87.8465221,18.4467218" id="Stroke-13" stroke="#030404" stroke-width="4" stroke-linecap="round" stroke-linejoin="round"></path>
                    <path d="M29.9923298,96.0299564 C29.9923298,96.0299564 23.5279077,109.023975 36.143855,121.018403" id="Stroke-17" stroke="#030404" stroke-width="4" stroke-linecap="round" stroke-linejoin="round"></path>
                    <path d="M41.9255748,68.4156508 C41.9255748,68.4156508 41.4252068,70.3508593 40.59126,71.1048842 C39.7573131,71.858576 37.09769,74.910661 34.1975566,68.4156508 C31.2977567,61.9206407 38.3752965,68.2047371 38.3752965,68.2047371" id="Fill-19" fill="#030404"></path>
                </g>
            </g>
        </g>
    </g>
</svg>


<svg width="70px" height="98px" viewBox="0 0 70 98" version="1.1" xmlns="http://www.w3.org/2000/svg" xmlns:xlink="http://www.w3.org/1999/xlink">
    <!-- Generator: Sketch 45.1 (43504) - http://www.bohemiancoding.com/sketch -->
    <desc>Created with Sketch.</desc>
    <defs></defs>
    <g id="Page-1" stroke="none" stroke-width="1" fill="none" fill-rule="evenodd">
        <g id="404-XS" transform="translate(-28.000000, -107.000000)">
            <g id="dropped-ice-cream" transform="translate(27.000000, 109.000000)">
                <path d="M3.34655714,93.3744627 L67.5532511,93.3744627" id="Line" stroke="#000000" stroke-width="4" stroke-linecap="round"></path>
                <g id="ice-cream">
                    <path d="M64.4363485,60.0173315 L62.1743025,0.0102688028 L39.1176167,25.1819702 L21.7559083,44.1365085 C21.7559083,44.1365085 11.944507,44.4856478 11.0368328,50.7701551 C10.1291586,57.0544236 16.7982079,60.3000818 16.7982079,60.3000818 C16.7982079,60.3000818 8.44684373,69.1632526 13.2277213,81.6396092 C15.0909047,86.5012903 17.6735162,90.3544795 20.8039689,93.1354146 L49.1251175,93.1356534 C55.1451821,88.1908666 58.9912552,80.854404 58.3379868,76.5204916 C58.3379868,76.5204916 65.48015,77.611134 67.7405301,72.8681412 C70.0006722,68.1251483 68.4066497,61.8246408 64.4363485,60.0173315 L64.4363485,60.0173315 Z" id="Stroke-1" stroke="#030404" stroke-width="4" stroke-linecap="round" stroke-linejoin="round"></path>
                    <path d="M21.7558607,44.1364608 C25.9710482,45.7801856 27.1757275,49.388834 27.1757275,49.388834 C28.582218,45.5824515 31.2524079,44.5383769 36.8467177,45.1977296 C42.4407895,45.8568434 42.5697773,53.0791551 42.5697773,53.0791551 C42.5697773,53.0791551 44.144285,50.8634818 50.9927749,50.8761387 C57.8410269,50.8890344 57.7455949,60.763563 57.7455949,60.763563 C57.7455949,60.763563 59.4750308,59.7725041 61.8653506,59.7053987 C62.6621239,59.6831894 63.5321965,59.7634293 64.4363009,60.0172837" id="Stroke-3" stroke="#030404" stroke-width="4" stroke-linecap="round" stroke-linejoin="round"></path>
                    <path d="M49.1877075,14.4871792 L63.2409506,45.0669576" id="Stroke-5" stroke="#030404" stroke-width="4" stroke-linecap="round" stroke-linejoin="round"></path>
                    <path d="M34.0633184,30.699995 L43.6967069,50.451679" id="Stroke-7" stroke="#030404" stroke-width="4" stroke-linecap="round" stroke-linejoin="round"></path>
                    <path d="M25.7860388,45.325612 L62.7055799,28.7978545" id="Stroke-9" stroke="#030404" stroke-width="4" stroke-linecap="round" stroke-linejoin="round"></path>
                    <path d="M48.7260645,50.962325 L63.2409982,45.0668382" id="Stroke-11" stroke="#030404" stroke-width="4" stroke-linecap="round" stroke-linejoin="round"></path>
                    <path d="M39.1177357,25.1819224 L62.6722858,13.2211553" id="Stroke-13" stroke="#030404" stroke-width="4" stroke-linecap="round" stroke-linejoin="round"></path>
                    <path d="M21.3974079,68.8266986 C21.3974079,68.8266986 16.7854996,78.1397863 25.7860864,86.7364459" id="Stroke-17" stroke="#030404" stroke-width="4" stroke-linecap="round" stroke-linejoin="round"></path>
                    <path d="M29.910935,49.0349424 C29.910935,49.0349424 29.5539577,50.4219472 28.9589956,50.9623728 C28.3640335,51.5025596 26.4665803,53.6900534 24.39754,49.0349424 C22.3287378,44.3798314 27.3780623,48.8837761 27.3780623,48.8837761" id="Fill-19" fill="#030404"></path>
                </g>
            </g>
        </g>
    </g>
</svg>
