<svg id="gk-logo-fel" xmlns="http://www.w3.org/2000/svg" width="33.10832" height="28" viewBox="0 0 33.10832 28"><title>gk-logo-fele</title><g id="GK"><path id="K" d="M257.54372,249.33173a.31993.31993,0,0,1,.32435-.32389h1.5813a.32863.32863,0,0,1,.32435.32389v3.54958l3.00034-3.73851a.40164.40164,0,0,1,.25692-.135h1.70279a.31183.31183,0,0,1,.24325.49933l-3.16249,3.95461,3.44645,4.48092a.31691.31691,0,0,1-.25692.49936h-1.86512a.36951.36951,0,0,1-.24312-.09448l-3.12209-4.238v4.02207a.32865.32865,0,0,1-.32435.32391h-1.5813a.32.32,0,0,1-.32435-.32391v-8.79993Z" transform="translate(-239.44453 -242.4502)" style="fill-rule:evenodd"/><path id="G" d="M251.55715,248.88632a5.2221,5.2221,0,0,1,3.29765,1.26863.23676.23676,0,0,1,.02715.36451l-1.06778,1.13367a.28625.28625,0,0,1-.36486.01349,2.48768,2.48768,0,0,0-1.77054-.6478,2.70635,2.70635,0,0,0,.01351,5.41218,3.19748,3.19748,0,0,0,1.20278-.21595v-.78276h-.85139a.24542.24542,0,0,1-.25678-.24292v-1.33622a.24833.24833,0,0,1,.25678-.25643h2.71666a.2538.2538,0,0,1,.24312.25643l.01364,3.63068a.33268.33268,0,0,1-.10825.21595,6.83555,6.83555,0,0,1-3.35171.87724,4.84534,4.84534,0,1,1,0-9.69068" transform="translate(-239.44453 -242.4502)" style="fill-rule:evenodd"/></g><path id="frame" d="M272.55285,242.4502H239.44453v22.76858h12.01281l10.50132,5.23142-.0004-5.23142h10.59459Zm-2.255,20.52755H259.70014l-.00149,3.66079-7.72831-3.66079H241.6994v-18.2867h28.59845Z" transform="translate(-239.44453 -242.4502)" style="fill-rule:evenodd"/></svg>