<?xml version="1.0" encoding="utf-8"?>
<!-- Generator: Adobe Illustrator 13.0.0, SVG Export Plug-In  -->
<!DOCTYPE svg PUBLIC "-//W3C//DTD SVG 1.1//EN" "http://www.w3.org/Graphics/SVG/1.1/DTD/svg11.dtd" [
	<!ENTITY ns_flows "http://ns.adobe.com/Flows/1.0/">
]>
<svg version="1.1"
	 xmlns="http://www.w3.org/2000/svg" xmlns:xlink="http://www.w3.org/1999/xlink" xmlns:a="http://ns.adobe.com/AdobeSVGViewerExtensions/3.0/"
	 x="0px" y="0px" width="1011px" height="208px" viewBox="-0.626 -0.406 1011 208" enable-background="new -0.626 -0.406 1011 208"
	 xml:space="preserve">
<defs>
</defs>
<path d="M89.192,47.689c8.4,0,17.601,3.5,24.4,9.4c0.901,0.7,1,1.901,0.202,2.7l-7.901,8.401c-0.801,0.7-1.9,0.7-2.701,0.1
	c-3.8-3.5-8.2-4.8-13.101-4.8c-10.9,0-19.701,9.2-19.701,20.201c0,10.9,8.901,19.9,19.802,19.9c2.9,0,5.9-0.399,8.9-1.6v-5.801h-6.3
	c-1.1,0-1.901-0.8-1.901-1.8v-9.9c0-1.101,0.801-1.901,1.901-1.901h20.101c1,0,1.8,0.901,1.8,1.901l0.101,26.901
	c0,0.5-0.401,1.301-0.801,1.601c0,0-10.301,6.5-24.801,6.5c-19.902,0-35.902-15.801-35.902-35.802
	C53.291,63.689,69.291,47.689,89.192,47.689"/>
<path d="M133.489,50.489c0-1,0.801-1.9,1.9-1.9h41.403c1.1,0,1.9,0.9,1.9,1.9v10.9c0,1-0.8,1.901-1.9,1.901h-27.701v12.4h22.8
	c1,0,1.901,0.901,1.901,1.901v10.9c0,1.101-0.901,1.9-1.901,1.9h-22.8v13.501h27.701c1.1,0,1.9,0.9,1.9,1.9v10.9
	c0,1-0.8,1.899-1.9,1.899h-41.403c-1.099,0-1.9-0.899-1.9-1.899V50.489z"/>
<path d="M196.989,49.389c0-1,0.9-1.8,1.9-1.8h2.5l39.903,38.403h0.1V50.49c0-1,0.8-1.901,1.9-1.901h12.002
	c1,0,1.899,0.901,1.899,1.901v67.303c0,1-0.899,1.801-1.899,1.801h-1.601c-0.3,0-1.1-0.301-1.3-0.5L212.89,79.391h-0.1v37.303
	c0,1-0.799,1.9-1.9,1.9h-11.901c-1,0-1.899-0.9-1.899-1.9L196.989,49.389z"/>
<path d="M279.39,50.489c0-1,0.899-1.9,1.899-1.9h12.001c1,0,1.901,0.9,1.901,1.9v66.204c0,1-0.901,1.899-1.901,1.899h-12.001
	c-1,0-1.899-0.899-1.899-1.899V50.489z"/>
<path d="M316.388,50.489c0-1,0.9-1.9,1.9-1.9h12.301c1.1,0,1.901,0.9,1.901,1.9v40.503c0,7,5.199,12.6,12.299,12.6
	c7.201,0,12.501-5.6,12.501-12.6V50.489c0-1,0.801-1.9,1.901-1.9h12.301c1,0,1.9,0.9,1.9,1.9v41.302
	c0,15.201-12.801,27.802-28.603,27.802c-15.7,0-28.401-12.601-28.401-27.802V50.489z"/>
<path d="M390.486,109.093l4.7-8.301c0.801-1.3,2.7-1.101,3.401-0.6c0.4,0.2,7.6,5.5,14.201,5.5c4,0,6.9-2.5,6.9-6.001
	c0-4.199-3.5-7.401-10.301-10.1c-8.6-3.4-19.401-10.102-19.401-22.102c0-9.9,7.7-19.901,23.102-19.901
	c10.4,0,18.401,5.3,21.401,7.501c1.2,0.699,1,2.5,0.6,3.199l-5.1,7.701c-0.7,1.1-2.5,2-3.4,1.3c-0.901-0.5-8.202-6.001-14.301-6.001
	c-3.601,0-6.301,2.401-6.301,5.102c0,3.699,3,6.5,10.9,9.7c7.801,3.101,20.202,9.2,20.202,22.802
	c0,10.301-8.901,20.701-23.602,20.701c-13,0-20.201-5.4-22.501-7.701C389.986,110.893,389.687,110.492,390.486,109.093"/>
<path d="M1010.374,0H0v168.706h318.888l77.706,38.763l-0.003-38.763h613.783V0z M480.3,152.101H379.881l-0.011,27.125
	l-57.185-27.125h-306V16.604H480.3V152.101z M578.53,118.493h-13.801c-0.699,0-1.6-0.399-1.799-0.7l-23.102-31.402v29.802
	c0,1.3-1.101,2.4-2.4,2.4h-11.701c-1.4,0-2.4-1.101-2.4-2.4V50.989c0-1.3,1-2.4,2.4-2.4h11.701c1.3,0,2.4,1.1,2.4,2.4v26.302
	l22.201-27.702c0.4-0.5,1.3-1,1.9-1h12.6c1.9,0,2.9,2.2,1.801,3.7L554.93,81.591l25.501,33.202
	C581.53,116.293,580.431,118.493,578.53,118.493 M611.427,116.693c0,1-0.899,1.9-1.899,1.9h-12.001c-1,0-1.9-0.9-1.9-1.9V50.489
	c0-1,0.9-1.9,1.9-1.9h12.001c1,0,1.899,0.9,1.899,1.9V116.693z M674.628,61.39c0,1-0.801,1.9-1.9,1.9h-14.301v53.403
	c0,1-0.9,1.9-1.9,1.9h-12.001c-1,0-1.899-0.9-1.899-1.9V63.29h-14.301c-1.101,0-1.9-0.9-1.9-1.9V50.489c0-1,0.8-1.9,1.9-1.9h44.402
	c1.1,0,1.9,0.9,1.9,1.9V61.39z M720.827,103.592c4.699,0,9.8-1.699,13.4-4.8c0.699-0.601,2-0.601,2.6,0.101l7.801,8.3
	c0.7,0.7,0.6,2.001-0.1,2.7c-6.801,6.601-15.401,9.701-24.302,9.701c-20.001,0-36.103-15.901-36.103-35.903
	c0-20.002,16.102-36.102,36.103-36.102c10.001,0,17.401,3.1,24.201,9.301c0.9,0.799,0.9,2,0.101,2.799l-7.801,8.101
	c-0.7,0.7-1.801,0.7-2.5,0c-3.701-3.3-8.601-5.101-13.501-5.101c-11.301,0-19.601,9.401-19.601,20.602
	C701.126,94.392,709.526,103.592,720.827,103.592 M821.526,116.693c0,1-0.899,1.9-1.899,1.9h-11.901c-1.1,0-1.899-0.9-1.899-1.9
	V90.392h-28.603v26.301c0,1-0.799,1.9-1.899,1.9h-11.901c-1,0-1.899-0.9-1.899-1.9V50.489c0-1,0.899-1.9,1.899-1.9h11.901
	c1.101,0,1.899,0.9,1.899,1.9V75.69h28.603V50.489c0-1,0.8-1.9,1.899-1.9h11.901c1,0,1.899,0.9,1.899,1.9V116.693z M888.925,61.39
	c0,1-0.8,1.9-1.9,1.9h-27.701v12.4h22.801c1,0,1.9,0.901,1.9,1.901v10.9c0,1.101-0.9,1.901-1.9,1.901h-22.801v13.5h27.701
	c1.101,0,1.9,0.9,1.9,1.9v10.9c0,1-0.8,1.9-1.9,1.9h-41.402c-1.1,0-1.9-0.9-1.9-1.9V50.489c0-1,0.801-1.9,1.9-1.9h41.402
	c1.101,0,1.9,0.9,1.9,1.9V61.39z M967.426,117.793c0,1-0.9,1.801-1.9,1.801h-1.601c-0.3,0-1.1-0.301-1.3-0.5l-39.503-39.703h-0.1
	v37.302c0,1-0.8,1.9-1.9,1.9h-11.9c-1,0-1.9-0.9-1.9-1.9l-0.1-67.304c0-1,0.9-1.8,1.9-1.8h2.5l39.902,38.402h0.1V50.489
	c0-1,0.801-1.9,1.9-1.9h12.001c1,0,1.9,0.9,1.9,1.9V117.793z"/>
</svg>
