<svg id="Layer_1" data-name="Layer 1" xmlns="http://www.w3.org/2000/svg" viewBox="0 0 545 242"><title>Artboard 2 copy</title><path d="M60.38,34.82c11.5,0,24.09,4.79,33.4,12.86a2.4,2.4,0,0,1,.27,3.7L83.23,62.88a2.9,2.9,0,0,1-3.7.14c-5.2-4.79-11.22-6.57-17.93-6.57-14.92,0-27,12.59-27,27.65a27.28,27.28,0,0,0,27.1,27.24,32.37,32.37,0,0,0,12.18-2.19V101.2H65.3a2.49,2.49,0,0,1-2.6-2.46V85.18a2.52,2.52,0,0,1,2.6-2.6H92.81a2.57,2.57,0,0,1,2.46,2.6L95.41,122a3.37,3.37,0,0,1-1.09,2.19,69.15,69.15,0,0,1-33.94,8.9,49.13,49.13,0,0,1,0-98.27Z"/><path d="M120.45,38.65a2.6,2.6,0,0,1,2.6-2.6h56.66a2.6,2.6,0,0,1,2.6,2.6V53.57a2.6,2.6,0,0,1-2.6,2.6H141.8v17H173a2.69,2.69,0,0,1,2.6,2.6V90.66a2.6,2.6,0,0,1-2.6,2.6H141.8v18.48h37.91a2.6,2.6,0,0,1,2.6,2.6v14.92a2.6,2.6,0,0,1-2.6,2.6H123.05a2.6,2.6,0,0,1-2.6-2.6Z"/><path d="M206.81,37.15a2.57,2.57,0,0,1,2.6-2.46h3.42l54.61,52.56h.14V38.65a2.6,2.6,0,0,1,2.6-2.6H286.6a2.69,2.69,0,0,1,2.6,2.6v92.11a2.57,2.57,0,0,1-2.6,2.46h-2.19a4,4,0,0,1-1.78-.68L228.57,78.2h-.14v51a2.6,2.6,0,0,1-2.6,2.6H209.55a2.69,2.69,0,0,1-2.6-2.6Z"/><path d="M319,38.65a2.69,2.69,0,0,1,2.6-2.6h16.42a2.69,2.69,0,0,1,2.6,2.6v90.6a2.69,2.69,0,0,1-2.6,2.6H321.63a2.69,2.69,0,0,1-2.6-2.6Z"/><path d="M369.12,38.65a2.69,2.69,0,0,1,2.6-2.6h16.83a2.6,2.6,0,0,1,2.6,2.6V94.08c0,9.58,7.12,17.24,16.83,17.24a16.89,16.89,0,0,0,17.11-17.24V38.65a2.6,2.6,0,0,1,2.6-2.6h16.83a2.69,2.69,0,0,1,2.6,2.6V95.18c0,20.8-17.52,38-39.14,38s-38.87-17.24-38.87-38Z"/><path d="M470,118.85l6.43-11.36c1.09-1.78,3.7-1.51,4.65-.82.55.27,10.4,7.53,19.43,7.53,5.48,0,9.44-3.42,9.44-8.21,0-5.75-4.79-10.13-14.1-13.82-11.77-4.65-26.55-13.82-26.55-30.25,0-13.55,10.54-27.23,31.62-27.23,14.23,0,25.18,7.25,29.29,10.26,1.64,1,1.37,3.42.82,4.38l-7,10.54c-1,1.51-3.42,2.74-4.65,1.78-1.23-.68-11.22-8.21-19.57-8.21-4.93,0-8.62,3.29-8.62,7,0,5.06,4.11,8.9,14.92,13.28s27.65,12.59,27.65,31.21c0,14.1-12.18,28.33-32.3,28.33-17.79,0-27.65-7.39-30.79-10.54C469.29,121.32,468.88,120.77,470,118.85Z"/><path d="M122.34,159.95a1.65,1.65,0,0,1,1.67-1.67h6.14a1.7,1.7,0,0,1,1.68,1.67v18.84L149.42,159a1.67,1.67,0,0,1,1.33-.7h7a1.48,1.48,0,0,1,1.12,2.51L140.63,181.3l19.54,23.38a1.53,1.53,0,0,1-1.25,2.44h-7.61a1.51,1.51,0,0,1-1.26-.49l-18.21-22.47v21.29a1.7,1.7,0,0,1-1.68,1.67H124a1.65,1.65,0,0,1-1.67-1.67Z"/><path d="M171.34,159.6a1.37,1.37,0,0,1,1.33-1.33h6.49a1.37,1.37,0,0,1,1.33,1.33v46.2a1.37,1.37,0,0,1-1.33,1.33h-6.49a1.37,1.37,0,0,1-1.33-1.33Z"/><path d="M203.23,166.65H192.56a1.33,1.33,0,0,1-1.33-1.33V159.6a1.33,1.33,0,0,1,1.33-1.33h30.5a1.33,1.33,0,0,1,1.33,1.33v5.72a1.33,1.33,0,0,1-1.33,1.33H212.38V205.8a1.37,1.37,0,0,1-1.33,1.33h-6.49a1.37,1.37,0,0,1-1.33-1.33Z"/><path d="M256.28,157.58a23.62,23.62,0,0,1,16.89,6.49,1.3,1.3,0,0,1,.07,2l-4.26,4.4a1.12,1.12,0,0,1-1.75,0,16.51,16.51,0,0,0-10.75-4.12c-8.93,0-15.56,7.47-15.56,16.26s6.7,16.12,15.63,16.12a16.74,16.74,0,0,0,10.68-4,1.29,1.29,0,0,1,1.75,0l4.33,4.47a1.33,1.33,0,0,1-.07,1.88,24,24,0,0,1-17,6.77,25.12,25.12,0,1,1,0-50.25Z"/><path d="M285.87,159.6a1.37,1.37,0,0,1,1.33-1.33h6.49A1.33,1.33,0,0,1,295,159.6v18.49h22.75V159.6a1.33,1.33,0,0,1,1.33-1.33h6.42a1.37,1.37,0,0,1,1.33,1.33v46.2a1.37,1.37,0,0,1-1.33,1.33h-6.42a1.33,1.33,0,0,1-1.33-1.33V186.54H295V205.8a1.33,1.33,0,0,1-1.33,1.33H287.2a1.37,1.37,0,0,1-1.33-1.33Z"/><path d="M343,159.6a1.33,1.33,0,0,1,1.33-1.33h28.4a1.33,1.33,0,0,1,1.33,1.33v5.72a1.33,1.33,0,0,1-1.33,1.33H352.11v11.45h17.24a1.37,1.37,0,0,1,1.33,1.33v5.79a1.32,1.32,0,0,1-1.33,1.33H352.11v12.21h20.66a1.33,1.33,0,0,1,1.33,1.33v5.72a1.33,1.33,0,0,1-1.33,1.33h-28.4A1.33,1.33,0,0,1,343,205.8Z"/><path d="M387.57,158.83a1.31,1.31,0,0,1,1.33-1.26h1.75l29,30.85h.07V159.6a1.33,1.33,0,0,1,1.33-1.33h6.42a1.37,1.37,0,0,1,1.33,1.33v47a1.31,1.31,0,0,1-1.33,1.26h-1.67l-29.17-32h-.07v30a1.33,1.33,0,0,1-1.33,1.33h-6.35a1.37,1.37,0,0,1-1.33-1.33Z"/></svg>