<svg id="Layer_1" data-name="Layer 1" xmlns="http://www.w3.org/2000/svg" viewBox="0 0 342 242"><title>Artboard 3 copy</title><path d="M329.63,229V10.52H12.37V229M34,207.5V32H308V207.5"/><path d="M128.44,72.28c10.88,0,22.79,4.53,31.6,12.17a2.27,2.27,0,0,1,.26,3.5L150.07,98.83a2.74,2.74,0,0,1-3.5.13c-4.92-4.53-10.62-6.22-17-6.22-14.12,0-25.51,11.92-25.51,26.16a25.81,25.81,0,0,0,25.64,25.77,30.6,30.6,0,0,0,11.53-2.07v-7.51H133.1a2.35,2.35,0,0,1-2.46-2.33V119.94a2.38,2.38,0,0,1,2.46-2.46h26a2.44,2.44,0,0,1,2.33,2.46l.13,34.84a3.2,3.2,0,0,1-1,2.07,65.44,65.44,0,0,1-32.12,8.42,46.5,46.5,0,1,1,0-93Z"/><path d="M185.8,76.55a3.07,3.07,0,0,1,3.11-3.11h15.15a3.15,3.15,0,0,1,3.11,3.11v34.06l28.75-35.88a3.84,3.84,0,0,1,2.46-1.3h16.32A3,3,0,0,1,257,78.23l-30.31,37.95,33,43A3,3,0,0,1,257.3,164H239.42a3.54,3.54,0,0,1-2.33-.91L207.18,122.4V161a3.15,3.15,0,0,1-3.11,3.11H188.91A3.07,3.07,0,0,1,185.8,161Z"/></svg>