<svg id="Layer_1" data-name="Layer 1" xmlns="http://www.w3.org/2000/svg" xmlns:xlink="http://www.w3.org/1999/xlink" width="621.904" height="214.853" viewBox="0 0 621.904 214.853"><defs><style>.cls-1{fill:none;}.cls-2{clip-path:url(#clip-path);}.cls-3{fill:url(#linear-gradient);}.cls-4{clip-path:url(#clip-path-2);}.cls-5{fill:url(#linear-gradient-2);}.cls-6{clip-path:url(#clip-path-3);}.cls-7{fill:url(#linear-gradient-3);}.cls-8{clip-path:url(#clip-path-4);}.cls-9{fill:url(#linear-gradient-4);}.cls-10{clip-path:url(#clip-path-5);}.cls-11{fill:url(#linear-gradient-5);}.cls-12{clip-path:url(#clip-path-6);}.cls-13{fill:url(#linear-gradient-6);}.cls-14{clip-path:url(#clip-path-7);}.cls-15{fill:url(#linear-gradient-7);}.cls-16{clip-path:url(#clip-path-8);}.cls-17{fill:url(#linear-gradient-8);}.cls-18{clip-path:url(#clip-path-9);}.cls-19{fill:url(#linear-gradient-9);}.cls-20{clip-path:url(#clip-path-10);}.cls-21{fill:url(#linear-gradient-10);}.cls-22{clip-path:url(#clip-path-11);}.cls-23{fill:url(#linear-gradient-11);}.cls-24{clip-path:url(#clip-path-12);}.cls-25{fill:url(#linear-gradient-12);}.cls-26{clip-path:url(#clip-path-13);}.cls-27{fill:url(#linear-gradient-13);}.cls-28{clip-path:url(#clip-path-14);}.cls-29{fill:url(#linear-gradient-14);}.cls-30{clip-path:url(#clip-path-15);}.cls-31{fill:url(#linear-gradient-15);}.cls-32{clip-path:url(#clip-path-16);}.cls-33{fill:url(#linear-gradient-16);}.cls-34{clip-path:url(#clip-path-17);}.cls-35{fill:url(#linear-gradient-17);}.cls-36{clip-path:url(#clip-path-18);}.cls-37{fill:url(#linear-gradient-18);}.cls-38{clip-path:url(#clip-path-19);}.cls-39{fill:url(#linear-gradient-19);}.cls-40{clip-path:url(#clip-path-20);}.cls-41{fill:url(#linear-gradient-20);}.cls-42{clip-path:url(#clip-path-21);}.cls-43{fill:url(#linear-gradient-21);}.cls-44{clip-path:url(#clip-path-22);}.cls-45{fill:url(#linear-gradient-22);}.cls-46{clip-path:url(#clip-path-23);}.cls-47{fill:url(#linear-gradient-23);}.cls-48{clip-path:url(#clip-path-24);}.cls-49{fill:url(#linear-gradient-24);}.cls-50{clip-path:url(#clip-path-25);}.cls-51{fill:url(#linear-gradient-25);}.cls-52{clip-path:url(#clip-path-26);}.cls-53{fill:url(#linear-gradient-26);}.cls-54{clip-path:url(#clip-path-27);}.cls-55{fill:url(#linear-gradient-27);}.cls-56{clip-path:url(#clip-path-28);}.cls-57{fill:url(#linear-gradient-28);}.cls-58{clip-path:url(#clip-path-29);}.cls-59{fill:url(#linear-gradient-29);}.cls-60{clip-path:url(#clip-path-30);}.cls-61{fill:url(#linear-gradient-30);}.cls-62{clip-path:url(#clip-path-31);}.cls-63{fill:url(#linear-gradient-31);}.cls-64{clip-path:url(#clip-path-32);}.cls-65{fill:url(#linear-gradient-32);}.cls-66{clip-path:url(#clip-path-33);}.cls-67{fill:url(#linear-gradient-33);}.cls-68{clip-path:url(#clip-path-34);}.cls-69{fill:url(#linear-gradient-34);}.cls-70{clip-path:url(#clip-path-35);}.cls-71{fill:url(#linear-gradient-35);}.cls-72{clip-path:url(#clip-path-36);}.cls-73{fill:url(#linear-gradient-36);}.cls-74{clip-path:url(#clip-path-37);}.cls-75{fill:url(#linear-gradient-37);}.cls-76{clip-path:url(#clip-path-38);}.cls-77{fill:url(#linear-gradient-38);}.cls-78{clip-path:url(#clip-path-39);}.cls-79{fill:url(#linear-gradient-39);}.cls-80{clip-path:url(#clip-path-40);}.cls-81{fill:url(#linear-gradient-40);}.cls-82{clip-path:url(#clip-path-41);}.cls-83{fill:url(#linear-gradient-41);}.cls-84{clip-path:url(#clip-path-42);}.cls-85{fill:url(#linear-gradient-42);}.cls-86{clip-path:url(#clip-path-43);}.cls-87{fill:url(#linear-gradient-43);}.cls-88{clip-path:url(#clip-path-44);}.cls-89{fill:url(#linear-gradient-44);}.cls-90{clip-path:url(#clip-path-45);}.cls-91{fill:url(#linear-gradient-45);}.cls-92{clip-path:url(#clip-path-46);}.cls-93{fill:url(#linear-gradient-46);}.cls-94{clip-path:url(#clip-path-47);}.cls-95{fill:url(#linear-gradient-47);}.cls-96{clip-path:url(#clip-path-48);}.cls-97{fill:url(#linear-gradient-48);}</style><clipPath id="clip-path"><path class="cls-1" d="M362.154,10.648a1.4933,1.4933,0,0,0-.122.637c.005,5.963-.245,110.154.261,112.082.248.949.323,2.219,1.296,2.664a33.3984,33.3984,0,0,0,4.548,1.176,19.4955,19.4955,0,0,1-2.253-9.158c-.087-16.603-.079-33.207.165-49.81.08-5.487-.01-10.977-.023-16.466.21-3.701.04-7.406.195-11.116.24-5.774.041-11.568.029-17.354.012-6.848.057-14.362.07-21.21-1.534,2.547-2.869,5.882-4.166,8.555"/></clipPath><linearGradient id="linear-gradient" x1="-294.094" y1="536.2872" x2="-293.094" y2="536.2872" gradientTransform="matrix(0, 119.9095, 119.9095, 0, -63940.9854, 35270.6491)" gradientUnits="userSpaceOnUse"><stop offset="0" stop-color="#7d4d9e"/><stop offset="0.2022" stop-color="#7b56a4"/><stop offset="0.5394" stop-color="#7670b5"/><stop offset="0.9678" stop-color="#6e9ad1"/><stop offset="1" stop-color="#6d9dd3"/></linearGradient><clipPath id="clip-path-2"><path class="cls-1" d="M61.253,27.382A37.4087,37.4087,0,0,0,42.29,37.706a42.1927,42.1927,0,0,0-6.752,9.018c-.612,1.462-1.262,2.907-1.829,4.386a31.2843,31.2843,0,0,0-2.194,10.583v2.951c.019.762-.254,1.553.224,2.27a8.3879,8.3879,0,0,0,.223,2.496,10.1825,10.1825,0,0,0,.673,2.723,9.1241,9.1241,0,0,0,.896,3.178,13.38,13.38,0,0,0,1.121,2.949,27.1619,27.1619,0,0,0,2.404,4.554,21.2571,21.2571,0,0,0,2.687,3.856c.9,1.483,2.343,2.482,3.362,3.859a39.8925,39.8925,0,0,0,4.942,4.098,19.1431,19.1431,0,0,0,4.918,2.711,9.87,9.87,0,0,0,2.884,1.354c5.321,1.922,10.817,1.836,16.324,1.3a7.6536,7.6536,0,0,0,3.191-.601,20.4058,20.4058,0,0,1-3.791-1.574l-3.998-2.544a50.7693,50.7693,0,0,1-4.032-3.63q-1.566-1.7025-3.135-3.404-1.2645-1.9245-2.529-3.851-1.008-2.04-2.016-4.08-.5355-1.3755-1.071-2.751-.36-1.35-.722-2.7a30.3686,30.3686,0,0,1-.896-7.035V65.325c.028-.706.167-1.401.24-2.099a31.2059,31.2059,0,0,1,2.678-9.577,33.5173,33.5173,0,0,1,8.793-11.876,36.3984,36.3984,0,0,1,11.569-6.858,29.247,29.247,0,0,1,11.233-1.609,4.6253,4.6253,0,0,0-1.96-1.539c-1.485-.702-3.046-1.246-4.514-1.981a29.9281,29.9281,0,0,0-11.371-3.007q-1.02-.072-2.038-.072a33.7446,33.7446,0,0,0-6.551.675"/></clipPath><linearGradient id="linear-gradient-2" x1="-294.094" y1="536.287" x2="-293.094" y2="536.287" gradientTransform="matrix(0, 96.5316, 96.5316, 0, -51709.1586, 28409.6889)" gradientUnits="userSpaceOnUse"><stop offset="0" stop-color="#7d4d9e"/><stop offset="0.1161" stop-color="#795ba8"/><stop offset="0.3349" stop-color="#6d80c1"/><stop offset="0.5098" stop-color="#62a2d8"/><stop offset="0.5324" stop-color="#649bd3"/><stop offset="0.6645" stop-color="#6f79bc"/><stop offset="0.79" stop-color="#7761ac"/><stop offset="0.905" stop-color="#7b52a1"/><stop offset="1" stop-color="#7d4d9e"/></linearGradient><clipPath id="clip-path-3"><path class="cls-1" d="M479.271,9.373c-1.686,1.053-1.521,3.395-1.515,3.955.151,14.651.248,58.735.211,66.124a33.3044,33.3044,0,0,1-.392,3.588h-.001l-.4481,2.467q-.36,1.1115-.722,2.221-.5685,1.128-1.138,2.259-.558.897-1.119,1.793-.7861,1.01-1.57,2.018l-2.244,2.245q-1.3455,1.008-2.691,2.017-1.3185.576-2.636,1.153a18.34,18.34,0,0,0,7.842.566,15.8329,15.8329,0,0,0,6.73-2.146,15.3747,15.3747,0,0,0,3.556-2.293,14.79,14.79,0,0,0,2.504-2.421,5.921,5.921,0,0,0,1.795-2.243,4.5782,4.5782,0,0,0,1.344-2.017,7.9468,7.9468,0,0,0,1.2841-2.255,13.7956,13.7956,0,0,0,.897-2.692,10.1467,10.1467,0,0,0,.673-2.691,100.3088,100.3088,0,0,0,.506-12.783c.008-.793-.253-1.526-.253-2.309.003-17.194.914-34.667.6349-51.861a94.183,94.183,0,0,1,.478-10.274c.378-.695.761-2.73,1.043-3.443-4.342,2.583-10.481,6.347-14.769,9.022"/></clipPath><linearGradient id="linear-gradient-3" x1="-294.094" y1="536.2851" x2="-293.094" y2="536.2851" gradientTransform="matrix(-95.5234, 0, 0, 95.5234, -27569.5727, -51177.5534)" gradientUnits="userSpaceOnUse"><stop offset="0" stop-color="#7d4d9e"/><stop offset="0.1765" stop-color="#7958a5"/><stop offset="0.482" stop-color="#6e74b7"/><stop offset="0.683" stop-color="#668ac6"/><stop offset="0.7678" stop-color="#6787c4"/><stop offset="0.8207" stop-color="#6a7fbf"/><stop offset="0.8649" stop-color="#7070b5"/><stop offset="0.904" stop-color="#775ca8"/><stop offset="0.9255" stop-color="#7d4d9e"/><stop offset="1" stop-color="#7d4d9e"/></linearGradient><clipPath id="clip-path-4"><path class="cls-1" d="M530.824,94.064a3.132,3.132,0,0,0-2.64,1.304c-.312.299-8.881,14.212-9.094,14.59-1.245,1.723-.134,2.649.282,3.347a12.6116,12.6116,0,0,0,4.431,4.047,71.071,71.071,0,0,0,17.509,7.63c5.396,1.621,28.51,3.83,31.27,4.038a22.1343,22.1343,0,0,0-3.694-1.111,44.3241,44.3241,0,0,1-7.562-1.776,17.116,17.116,0,0,1-1.667-.391c-6.77-2.29-13.419-4.841-19.122-9.138-1.849-1.394-3.56-3.012-3.673-5.525q.2685-.555.537-1.114a3.1825,3.1825,0,0,0,.639-1.128,2.2358,2.2358,0,0,0,.523-1.324q2.5561-4.3845,5.114-8.77,1.1745-1.6815,2.349-3.364l1.239-1.339q.792-.552,1.584-1.102c-2.006.047-16.955,1.012-18.025,1.126"/></clipPath><linearGradient id="linear-gradient-4" x1="-294.094" y1="536.2653" x2="-293.094" y2="536.2653" gradientTransform="matrix(-50.2578, -0.0001, -0.0001, 50.2578, -14211.4731, -26840.5738)" gradientUnits="userSpaceOnUse"><stop offset="0" stop-color="#7d4d9e"/><stop offset="0.1222" stop-color="#7d4d9e"/><stop offset="0.1481" stop-color="#7760ab"/><stop offset="0.1903" stop-color="#6f78bb"/><stop offset="0.2381" stop-color="#698bc8"/><stop offset="0.2941" stop-color="#6598d1"/><stop offset="0.3661" stop-color="#63a0d6"/><stop offset="0.5098" stop-color="#62a2d8"/><stop offset="0.5365" stop-color="#6598d1"/><stop offset="0.5815" stop-color="#6d7ebf"/><stop offset="0.6391" stop-color="#7b53a2"/><stop offset="0.6466" stop-color="#7d4d9e"/><stop offset="1" stop-color="#7d4d9e"/></linearGradient><clipPath id="clip-path-5"><path class="cls-1" d="M261.609,72.003c.264,10.747-.2,21.495.273,32.244.266,6.043.075,12.1.09,18.151-.47,1.58-1.541,3.385-1.744,4.997,1.278-.375,3.455-.967,4.75-1.295.443-.111.726-.209.785-.627.175-1.254.541-65.444.541-65.444-1.372-1.454-3.075-3.464-4.587-4.859,0,5.303-.108,11.529-.108,16.833"/></clipPath><linearGradient id="linear-gradient-5" x1="-294.094" y1="536.288" x2="-293.094" y2="536.288" gradientTransform="matrix(0, 90.2074, 90.2074, 0, -48113.869, 26576.5878)" gradientUnits="userSpaceOnUse"><stop offset="0" stop-color="#7d4d9e"/><stop offset="0.1546" stop-color="#7867af"/><stop offset="0.3456" stop-color="#7380c0"/><stop offset="0.545" stop-color="#7092cc"/><stop offset="0.7565" stop-color="#6e9dd3"/><stop offset="1" stop-color="#6da0d5"/></linearGradient><clipPath id="clip-path-6"><path class="cls-1" d="M100.567,9.145a70.4814,70.4814,0,0,1,7.814,6.008,5.3836,5.3836,0,0,0,1.99,1.053c.072.338.488.508.458.8979-.125.35.255.578.227.905a4.1114,4.1114,0,0,1-1.532,2.836,31.958,31.958,0,0,0-4.233,4.403,54.87,54.87,0,0,1-6.57,7.13,13.3169,13.3169,0,0,1-2.817,2.46,12.8957,12.8957,0,0,1-3.665,1.547c-.645.508-.157.66-.136.666,5.48,1.816,11.171,3.064,16.66,4.856a3.5227,3.5227,0,0,0,2.315-.03c3.883-2.486,11.645-12.555,13.025-14.182.956-1.109.719-3.878-.912-5.008-.492-.783-25.221-15.998-29.158-17.525.848.842,5.539,3.363,6.534,3.983"/></clipPath><linearGradient id="linear-gradient-6" x1="-294.094" y1="536.285" x2="-293.094" y2="536.285" gradientTransform="matrix(53.0734, 0, 0, -53.0734, 15696.5901, 28486.1737)" gradientUnits="userSpaceOnUse"><stop offset="0" stop-color="#7d4d9e"/><stop offset="0.1649" stop-color="#7d51a1"/><stop offset="0.3435" stop-color="#7b5ea8"/><stop offset="0.5287" stop-color="#7974b5"/><stop offset="0.7183" stop-color="#7692c7"/><stop offset="0.9095" stop-color="#72b9de"/><stop offset="1" stop-color="#70ceea"/></linearGradient><clipPath id="clip-path-7"><path class="cls-1" d="M110.791,62.864c.042.165.011.367.226.446q.1425.447.287.894.2235.672.448,1.345a4.8619,4.8619,0,0,0,.225,2.018V86.183q-.0375,2.13-.075,4.26.02,10.9035.028,21.806a4.1592,4.1592,0,0,1-.178.849c-.013.335-.012.672-.041,1.006a3.0693,3.0693,0,0,1-1.487,2.596,59.4417,59.4417,0,0,1-11.328,5.547,107.1446,107.1446,0,0,1-17.011,4.979q-2.3415.4365-4.683.88a25.8981,25.8981,0,0,0,4.31-.25c3.221-.164,13.976-1.205,16.08-1.592a91.8894,91.8894,0,0,0,13.402-3.505,66.7185,66.7185,0,0,0,14.778-6.678c1.336-.865,1.652-3.703,1.651-4.021q-.0345-11.145-.045-22.289V70.707c-.075-.598.045-4.656-2.224-5.177-2.784-.639-5.555-1.336-8.336-1.99-2.285-.538-5.566-1.35-7.855-1.869.185.386,1.486.957,1.828,1.193"/></clipPath><linearGradient id="linear-gradient-7" x1="-294.094" y1="536.288" x2="-293.094" y2="536.288" gradientTransform="matrix(0, -94.9682, -94.9682, 0, 51032.6455, -27795.0971)" gradientUnits="userSpaceOnUse"><stop offset="0" stop-color="#7d4d9e"/><stop offset="0.0288" stop-color="#785ba8"/><stop offset="0.0928" stop-color="#7075b9"/><stop offset="0.1636" stop-color="#6a89c7"/><stop offset="0.2442" stop-color="#6597d1"/><stop offset="0.3425" stop-color="#63a0d6"/><stop offset="0.5098" stop-color="#62a2d8"/><stop offset="0.7605" stop-color="#6f78bc"/><stop offset="1" stop-color="#7d4d9e"/></linearGradient><clipPath id="clip-path-8"><path class="cls-1" d="M213.582,2.53l.673,4.709c-.217,2.176.294,4.327.224,6.497-.1,2.617.07,5.24-.225,7.851-.088.917-.147,1.838-.277,2.749a1.2345,1.2345,0,0,1-.665,1.069,11.7813,11.7813,0,0,1-2.449.916c-2.906.624-5.834.392-8.757.386-.449.012-.897.035-1.344.035q-15.9225.003-31.845.004c-2.691.001-5.381.023-8.071.035-.377.11-.228.426-.229.652-.009,6.901.007,13.802-.024,20.703-.003.761.341,1.68.957,1.677,2.339-.014,4.665-.009,6.995-.005q1.854.0045,3.716.005c.013-5.305.026-11.474.039-16.779,2.936.007,32.367.007,44.162.007,3.439,0,4.621-1.037,4.621-2.218,0-.987.218-19.061-.175-20.454a4.0871,4.0871,0,0,0-.93-1.781A70.1429,70.1429,0,0,0,212.63.504c.162.446.79,1.579.952,2.026"/></clipPath><linearGradient id="linear-gradient-8" x1="-294.094" y1="536.2776" x2="-293.094" y2="536.2776" gradientTransform="matrix(-110.2294, 0, 0, 110.2294, -32179.5814, -59088.4108)" gradientUnits="userSpaceOnUse"><stop offset="0" stop-color="#7d4d9e"/><stop offset="0.2166" stop-color="#7c51a0"/><stop offset="0.4315" stop-color="#795da7"/><stop offset="0.5148" stop-color="#7962aa"/><stop offset="0.607" stop-color="#786fb2"/><stop offset="0.7037" stop-color="#7685bf"/><stop offset="0.8032" stop-color="#73a4d1"/><stop offset="0.9042" stop-color="#70cce9"/><stop offset="0.9099" stop-color="#70ceea"/><stop offset="1" stop-color="#70ceea"/></linearGradient><clipPath id="clip-path-9"><path class="cls-1" d="M205.282,52.539a11.9911,11.9911,0,0,0,.225,3.14c-.073,1.875-.049,6.108-.043,6.425.027,1.597.03,3.193.043,4.79-.368.401-.235.898-.262,1.365a15.13,15.13,0,0,1-.645,4.025,6.9771,6.9771,0,0,1-.693,2.414,1.07,1.07,0,0,1-1.114.727c-1.515-.004-3.031.04-4.546.084-1.536.044-3.07.088-4.602.082-5.34-.019-10.679.06-16.017.139-5.445.081-10.891.162-16.335.137-.149-.001-.297.022-.446.035-.376.11-.228.427-.229.651-.009,7.648.005,15.296-.025,22.944-.002.757.304.83.923.826,2.65-.017,5.3-.015,7.95-.013q1.398,0,2.795,0,.018-10.872.038-21.743c1.573.042,8.285-.091,15.891-.225,8.231-.145,17.511-.291,22.456-.213.989.016,2.6-.418,2.701-1.351.303-2.799-.065-18.497-.065-20.202a1.6934,1.6934,0,0,0-1.101-1.928c-.518-.258-5.972-3.941-8.043-4.733.443.518.643,2.122,1.144,2.624"/></clipPath><linearGradient id="linear-gradient-9" x1="-294.094" y1="536.2856" x2="-293.094" y2="536.2856" gradientTransform="matrix(-129.6283, 0, 0, 129.6283, -37869.2987, -69442.6782)" gradientUnits="userSpaceOnUse"><stop offset="0" stop-color="#7d4d9e"/><stop offset="0.0283" stop-color="#7d51a0"/><stop offset="0.6973" stop-color="#74abd5"/><stop offset="1" stop-color="#70ceea"/></linearGradient><clipPath id="clip-path-10"><path class="cls-1" d="M530.054,15.694a24.9839,24.9839,0,0,0-8.995,11.86c.013.148.026.298.038.446q0,1.5915-.001,3.18v2.511a5.7937,5.7937,0,0,0-.231,2.505q-.0179,7.8465-.036,15.692c.364.218.299.64.449.957a44.0472,44.0472,0,0,0,12.425,15.5,37.8818,37.8818,0,0,0,7.748,5.065c5.899,2.731,12.051,4.928,17.751,8.085a22.3112,22.3112,0,0,1,7.192,5.953,14.1756,14.1756,0,0,1,3.051,9.758c-.6,2.333-2.269,4.769-2.784,5.032.083.222.248.214.413.205a.6874.6874,0,0,1,.223.012,14.12,14.12,0,0,0,2.346.863c1.113.084,2.094.763,3.243.683,4.2.97,8.378,1.263,12.493-.394a3.0543,3.0543,0,0,0,1.631-.922c.466-.013.687-.345.914-.672.684-.126.992-.697,1.399-1.15a5.9613,5.9613,0,0,0,1.161-1.598,2.3687,2.3687,0,0,0,.63-1.369c.104-.221.356-.395.23-.691.381-.391.23-.895.297-1.353a3.6152,3.6152,0,0,0,.165-2.415,18.3223,18.3223,0,0,0-8.328-12.638c-5.468-3.696-11.663-5.934-17.634-8.621a59.03,59.03,0,0,1-7.211-3.459,53.7179,53.7179,0,0,1-10.692-8.641,46.5674,46.5674,0,0,1-7.452-10.248,34.655,34.655,0,0,1-3.669-10.707,32.51,32.51,0,0,1-.45-5.253,30.2577,30.2577,0,0,0,.148-3.138q.2325-1.251.462-2.505.3481-1.59.694-3.179.6945-1.824,1.388-3.65,1.074-2.16,2.15-4.321,1.3875-2.1645,2.778-4.328.9225-1.023,1.848-2.046a12.479,12.479,0,0,1,2.31-2.276,48.5045,48.5045,0,0,1,4.069-3.04,25.204,25.204,0,0,0,3.539-2.455l-.008-.001c-.555-.001-21.575,9.357-25.694,12.763"/></clipPath><linearGradient id="linear-gradient-10" x1="-294.094" y1="536.3216" x2="-293.094" y2="536.3216" gradientTransform="matrix(0, 117.4831, 117.4831, 0, -62452.3313, 34544.5714)" gradientUnits="userSpaceOnUse"><stop offset="0" stop-color="#7d4d9e"/><stop offset="0.1157" stop-color="#7c51a1"/><stop offset="0.2363" stop-color="#785ea9"/><stop offset="0.3591" stop-color="#7173b8"/><stop offset="0.4827" stop-color="#6890cb"/><stop offset="0.5479" stop-color="#62a2d8"/><stop offset="0.6348" stop-color="#649dd4"/><stop offset="0.742" stop-color="#688eca"/><stop offset="0.8597" stop-color="#7075b9"/><stop offset="0.9843" stop-color="#7b52a1"/><stop offset="1" stop-color="#7d4d9e"/></linearGradient><clipPath id="clip-path-11"><path class="cls-1" d="M183.015,145.182a28.0394,28.0394,0,0,0-11.261,2.243c2.578-.014,5.946.001,8.524-.032a7.9181,7.9181,0,0,1,2.387.396c1.625.487,1.869,1.118,1.158,2.642a20.241,20.241,0,0,1-3.235,4.377c-2.149,2.54-4.385,5.007-6.638,7.454-2.279,2.476-4.508,4.996-6.731,7.523-2.547,2.896-5.153,5.736-7.765,8.569-.414.45-.354.654.014,1.085,2.157,2.523,4.299,5.06,6.396,7.635,3.009,3.695,5.959,7.44,8.964,11.139,3.034,3.731,6.121,7.417,9.147,11.154.97,1.198,1.774,2.383.96,4.279.886-.066,5.225-3.849,6.544-5.151a2.2738,2.2738,0,0,0,.252-3.273c-2.393-2.883-21.618-26.467-24.372-29.772a.6659.6659,0,0,1,.049-1.059c.815-.821,21.842-24.569,23.039-26.296.766-1.398.537-1.917-.935-2.457a30.3625,30.3625,0,0,0-6.446-.456h-.051"/></clipPath><linearGradient id="linear-gradient-11" x1="-294.094" y1="536.289" x2="-293.094" y2="536.289" gradientTransform="matrix(0, 55.706, 55.706, 0, -29698.7469, 16532.7638)" gradientUnits="userSpaceOnUse"><stop offset="0" stop-color="#7d4d9e"/><stop offset="0.3687" stop-color="#7d4d9e"/><stop offset="0.4118" stop-color="#7a5ca8"/><stop offset="0.5285" stop-color="#7480c1"/><stop offset="0.6463" stop-color="#6f9cd4"/><stop offset="0.764" stop-color="#6bb0e1"/><stop offset="0.8819" stop-color="#69bce9"/><stop offset="1" stop-color="#68c0ec"/></linearGradient><clipPath id="clip-path-12"><path class="cls-1" d="M449.942,149.072c.097,5.783.25,48.268.25,57.772a1.35,1.35,0,0,0,.665,1.39s4.404,3.526,6.907,5.326c-.067-6.325.578-12.614.486-18.939-.216-15.004-.068-30.013-.073-45.02a9.8177,9.8177,0,0,1,.498-2.647c.148-.526.492-.518,1.121-.473a2.2458,2.2458,0,0,0,.761-.131,2.377,2.377,0,0,1,.719-.134,60.23,60.23,0,0,0-8.164-2.223h-.028c-3.446,0-3.1609,3.945-3.142,5.079"/></clipPath><linearGradient id="linear-gradient-12" x1="-294.094" y1="536.2859" x2="-293.094" y2="536.2859" gradientTransform="matrix(0, 67.2773, 67.2773, 0, -35624.3944, 19928.8931)" gradientUnits="userSpaceOnUse"><stop offset="0" stop-color="#7d4d9e"/><stop offset="0.365" stop-color="#7d4f9f"/><stop offset="0.5272" stop-color="#7c56a4"/><stop offset="0.6492" stop-color="#7b63ab"/><stop offset="0.7512" stop-color="#7975b6"/><stop offset="0.8406" stop-color="#778cc3"/><stop offset="0.9204" stop-color="#74a9d4"/><stop offset="0.9928" stop-color="#70cae8"/><stop offset="1" stop-color="#70ceea"/></linearGradient><clipPath id="clip-path-13"><path class="cls-1" d="M398.396,150.494c-.003,3.418.461,49.139.416,55.181a3.9118,3.9118,0,0,0,.966,3.057c1.389,1.434,2.687,2.951,4.022,4.433-.139-7.616.133-15.23-.189-22.85-.34-8.023.144-16.061-.244-24.094-.216-4.486-.056-8.99-.029-13.484a14.0576,14.0576,0,0,1,.71-4.158,1.5329,1.5329,0,0,1,1.724-1.227q14.658.0615,29.319.036,4.266,0,8.535-.001c.355,0,.77-.092,1.124-.078-.478-.185-5.412-2.076-7.552-2.084-12.258-.043-24.518-.014-36.776-.038-2.536,0-2.024,3.782-2.026,5.307"/></clipPath><linearGradient id="linear-gradient-13" x1="-294.094" y1="536.2838" x2="-293.094" y2="536.2838" gradientTransform="matrix(0, 55.3287, 55.3287, 0, -29250.5671, 16434.4849)" xlink:href="#linear-gradient-6"/><clipPath id="clip-path-14"><path class="cls-1" d="M498.285,144.991l-3.9561.181c-1.964.262-1.965,1.925-1.964,4.309.1,7.483.184,27.293.172,29.715,3.278,3.582,6.557,7.164,9.992,10.916v-1.585q-.0015-18.5835-.005-37.167a11.0311,11.0311,0,0,1,.531-3.049,1.06,1.06,0,0,1,1.174-.86c1.497.033,3.203.022,4.868.011,1.118-.008,2.219-.015,3.225-.01a43.8682,43.8682,0,0,0-5.007-1.321,30.9309,30.9309,0,0,0-7.554-1.2c-.481,0-.972.019-1.476.06"/></clipPath><linearGradient id="linear-gradient-14" x1="-294.094" y1="536.288" x2="-293.094" y2="536.288" gradientTransform="matrix(0, 48.3107, 48.3107, 0, -25406.102, 14359.1929)" xlink:href="#linear-gradient-6"/><clipPath id="clip-path-15"><path class="cls-1" d="M196.06,147.265c.922-.007,1.913.036,2.901.078.932.041,1.862.08,2.733.078a14.172,14.172,0,0,1,3.873.243c.665.187,1.269.351,1.277,1.37.053,6.496.036,12.99.137,19.486.206,13.169.059,26.344.065,39.516.001.664.13,1.331.094,1.991-.062,1.167-.971,2.581-1.081,3.743.38.165,1.256-.463,1.43-.639,1.308-1.313,2.582-2.662,3.892-3.972,1.573-1.574,1.275-3.923,1.264-5.092-.066-6.687-.225-44.198-.225-56.267,0-2.193-2.588-2.594-2.85-2.594-.596,0-1.193.006-1.789.013-1.314.014-2.628.029-3.937-.03-.135-.007-.27-.01-.404-.01-2.625,0-5.057,1.149-7.38,2.086"/></clipPath><linearGradient id="linear-gradient-15" x1="-294.094" y1="536.2898" x2="-293.094" y2="536.2898" gradientTransform="matrix(0, 80.2173, 80.2173, 0, -42815.1855, 23741.5656)" gradientUnits="userSpaceOnUse"><stop offset="0" stop-color="#7d4d9e"/><stop offset="1" stop-color="#66c7f1"/></linearGradient><clipPath id="clip-path-16"><path class="cls-1" d="M277.066,178.129a21.7189,21.7189,0,0,0,3.005,13.744,22.4279,22.4279,0,0,0,9.06,8.194,18.7707,18.7707,0,0,0,9.978,2.018c2.709-.192,5.459-.481,7.831-1.897a33.3733,33.3733,0,0,1,5.353-2.989c1.801-.684,2.624-.551,3.654.702,1.624,1.978,3.658,4.135,5.453,5.958.003-.216-.155-4.224-.155-4.224a3.9387,3.9387,0,0,0-.791-1.925c-1.8-1.913-3.566-3.857-5.357-5.778-.263-.282-.483-.596-1.021-.481-1.548.332-9.842,5.254-13.207,5.557a18.78,18.78,0,0,1-14.971-4.917,21.5969,21.5969,0,0,1-6.085-9.482,19.0853,19.0853,0,0,1-.827-8.664c.199-1.367,1.132-5.518,1.132-5.518a24.3553,24.3553,0,0,0-3.052,9.702"/></clipPath><linearGradient id="linear-gradient-16" x1="-294.094" y1="536.3568" x2="-293.094" y2="536.3568" gradientTransform="matrix(0, 53.9685, 53.9685, 0, -28647.3502, 16033.2483)" gradientUnits="userSpaceOnUse"><stop offset="0" stop-color="#7d4d9e"/><stop offset="0.1366" stop-color="#7c57a4"/><stop offset="0.3681" stop-color="#7972b4"/><stop offset="0.664" stop-color="#759dcd"/><stop offset="0.9581" stop-color="#70ceea"/><stop offset="1" stop-color="#70ceea"/></linearGradient><clipPath id="clip-path-17"><path class="cls-1" d="M374.169,145.478c-.965.026-1.317.696-1.461,1.565-.147,2.203-.241,20.619-.158,22.483.044.945-.236,1.154-1.183,1.151-8.934-.036-18.118-.119-27.052-.115a20.0187,20.0187,0,0,1,.025,2.348c-.094.935-.448,1.351.506,1.348,9.312-.037,19.301-.202,28.613-.207.719,0,1.6151.204,2.106-.134.564-.388-.076-1.221-.09-1.872-.066-3.233.0551-6.464-.17-9.704-.223-3.197-.076-6.42-.036-9.63a16.4932,16.4932,0,0,1,.701-4.221,1.2259,1.2259,0,0,1,1.084-.949c1.023-.198,2.044-.074,3.051-.216,2.309-.323,5.1931.498,7.429,1.037,0,0-1.727-3.125-3.223-3.075-.655-.035-1.359-.049-2.092-.049-2.591,0-5.554.176-8.05.24"/></clipPath><linearGradient id="linear-gradient-17" x1="-294.094" y1="536.285" x2="-293.094" y2="536.285" gradientTransform="matrix(0, 50.9141, 50.9141, 0, -26938.767, 15123.0514)" gradientUnits="userSpaceOnUse"><stop offset="0" stop-color="#7d4d9e"/><stop offset="0.1778" stop-color="#7b5ea8"/><stop offset="0.5302" stop-color="#778ac2"/><stop offset="1" stop-color="#70ceea"/></linearGradient><clipPath id="clip-path-18"><path class="cls-1" d="M147.389,186.37c-.2,9.062-.272,18.225-1.121,27.276,2.604-1.776,5.885-3.654,8.504-5.405a1.6244,1.6244,0,0,0,.88-1.343c-.033-1.275.269-9.986.281-13.086a1.1686,1.1686,0,0,0-.347-.697c-1.737-2.171-3.457-4.357-5.193-6.531-1.031-1.291-2.082-2.564-3.156-3.885-.307,1.322.178,2.476.152,3.671"/></clipPath><linearGradient id="linear-gradient-18" x1="-294.094" y1="536.288" x2="-293.094" y2="536.288" gradientTransform="matrix(0, 36.0008, 36.0008, 0, -19155.7083, 10767.3199)" gradientUnits="userSpaceOnUse"><stop offset="0" stop-color="#7d4d9e"/><stop offset="0.3927" stop-color="#7785bf"/><stop offset="0.8004" stop-color="#72bade"/><stop offset="1" stop-color="#70ceea"/></linearGradient><clipPath id="clip-path-19"><path class="cls-1" d="M244.261,159.801c.058,1.065.006,2.136.017,3.204.168,16.852-.151,33.702-.037,50.555a18.6994,18.6994,0,0,0,3.399-6.069c.12-10.228.241-42.493.252-48.396a2.7673,2.7673,0,0,0-1.686-.235,4.5568,4.5568,0,0,1-1.018-.005,1.8469,1.8469,0,0,0-.271-.023c-.529,0-.691.326-.656.969"/></clipPath><linearGradient id="linear-gradient-19" x1="-294.094" y1="536.2871" x2="-293.094" y2="536.2871" gradientTransform="matrix(0, 47.0495, 47.0495, 0, -24986.0208, 13996.4544)" xlink:href="#linear-gradient-15"/><clipPath id="clip-path-20"><path class="cls-1" d="M415.64,196.834c.015,1.726.049,3.453.033,5.179-.005.592.157.793.7209.809a8.7614,8.7614,0,0,0,1.447-.123,8.7251,8.7251,0,0,1,1.418-.124c3.248.079,6.494-.027,9.739-.131,2.554-.083,5.107-.166,7.662-.159a38.2235,38.2235,0,0,1,8.348.833c.19-.26.435-.479.319-.573-1.363-1.107-6.511-4.921-7.702-5.184-2.188-.485-15.476-.529-20.352-.529-.798,0-1.372.001-1.633.002"/></clipPath><linearGradient id="linear-gradient-20" x1="-294.094" y1="536.288" x2="-293.094" y2="536.288" gradientTransform="matrix(29.717, 0, 0, -29.717, 9154.2449, 16136.8347)" gradientUnits="userSpaceOnUse"><stop offset="0" stop-color="#7d4d9e"/><stop offset="0.1165" stop-color="#7a69af"/><stop offset="0.2932" stop-color="#778dc4"/><stop offset="0.4712" stop-color="#74aad5"/><stop offset="0.6485" stop-color="#72bee0"/><stop offset="0.8251" stop-color="#70cae8"/><stop offset="1" stop-color="#70ceea"/></linearGradient><clipPath id="clip-path-21"><path class="cls-1" d="M374.104,185.527a12.6883,12.6883,0,0,1-1.678.033c-.249-.006-.498-.013-.747-.013-.077,3.779-.089,16.903-.052,19.354a13.4744,13.4744,0,0,0,4.158,8.682c.092-1.105-.698-2.734-.691-3.845.043-6.968-.005-14.526.003-21.495.001-.78-.384-.815-.144-1.598.191-.628.07-1.129-.649-1.129-.062,0-.129.004-.2.011"/></clipPath><linearGradient id="linear-gradient-21" x1="-294.094" y1="536.2889" x2="-293.094" y2="536.2889" gradientTransform="matrix(0, 39.7852, 39.7852, 0, -20962.6157, 11881.9959)" xlink:href="#linear-gradient-6"/><clipPath id="clip-path-22"><path class="cls-1" d="M415.64,170.562a20.6231,20.6231,0,0,1,.025,2.344c-.09.927.209,1.192,1.15,1.168,3.859-.099,7.718-.002,11.576.095,3.583.09,7.165.18,10.749.113.149-.004,1.063.025,1.211.039-2.008-1.142-4.78-2.286-6.793-3.42a1.14,1.14,0,0,0-.517-.122c-1.278-.026-12.627-.217-17.245-.217h-.156"/></clipPath><linearGradient id="linear-gradient-22" x1="-294.094" y1="536.2875" x2="-293.094" y2="536.2875" gradientTransform="matrix(24.7102, 0, 0, -24.7102, 7682.7582, 13424.2197)" xlink:href="#linear-gradient-20"/><clipPath id="clip-path-23"><path class="cls-1" d="M.35,63.96a64.6238,64.6238,0,0,0,65.058,64.88,91.5669,91.5669,0,0,0,44.945-11.781,4.4679,4.4679,0,0,0,1.449-2.899l-.18-48.751a3.4063,3.4063,0,0,0-3.262-3.442H71.933a3.3321,3.3321,0,0,0-3.443,3.442V83.352a3.293,3.293,0,0,0,3.443,3.261H83.352V97.125a42.8653,42.8653,0,0,1-16.129,2.899A36.1217,36.1217,0,0,1,31.339,63.96c0-19.934,15.948-36.608,35.702-36.608,8.879,0,16.853,2.356,23.739,8.7a3.8366,3.8366,0,0,0,4.893-.183L109.99,20.647a3.18,3.18,0,0,0-.36-4.894C97.305,5.061,80.634-1.2809,65.408-1.2809A64.93,64.93,0,0,0,.35,63.96"/></clipPath><linearGradient id="linear-gradient-23" x1="-294.094" y1="536.288" x2="-293.094" y2="536.288" gradientTransform="matrix(0, 80.5683, 80.5683, 0, -43151.7127, 23720.0722)" gradientUnits="userSpaceOnUse"><stop offset="0" stop-color="#fff"/><stop offset="0.1561" stop-color="#fbfdfe"/><stop offset="0.3252" stop-color="#eef9fc"/><stop offset="0.5005" stop-color="#d8f2f9"/><stop offset="0.6801" stop-color="#bae7f5"/><stop offset="0.861" stop-color="#93daef"/><stop offset="1" stop-color="#70ceea"/></linearGradient><clipPath id="clip-path-24"><path class="cls-1" d="M135.716.351a3.44,3.44,0,0,0-3.444,3.441V123.764a3.4405,3.4405,0,0,0,3.444,3.443h75.027a3.4412,3.4412,0,0,0,3.444-3.443V104.011a3.4427,3.4427,0,0,0-3.444-3.444h-50.2V76.101h41.321a3.4407,3.4407,0,0,0,3.443-3.442V52.904a3.5641,3.5641,0,0,0-3.443-3.441H160.543V26.99h50.2a3.4412,3.4412,0,0,0,3.444-3.443V3.7921A3.4408,3.4408,0,0,0,210.743.351Z"/></clipPath><linearGradient id="linear-gradient-24" x1="-294.094" y1="536.288" x2="-293.094" y2="536.288" gradientTransform="matrix(0, 80.5683, 80.5683, 0, -43034.5593, 23720.0722)" xlink:href="#linear-gradient-23"/><clipPath id="clip-path-25"><path class="cls-1" d="M237.377-1.462A3.4063,3.4063,0,0,0,233.935,1.8l.18,121.964a3.5646,3.5646,0,0,0,3.444,3.443h21.565a3.4421,3.4421,0,0,0,3.445-3.443V56.168h.18l71.585,71.946a5.3385,5.3385,0,0,0,2.355.906h2.899a3.4065,3.4065,0,0,0,3.443-3.262V3.7921A3.5627,3.5627,0,0,0,339.588.351H317.842a3.4393,3.4393,0,0,0-3.443,3.441V68.129h-.183L241.907-1.462Z"/></clipPath><linearGradient id="linear-gradient-25" x1="-294.094" y1="536.288" x2="-293.094" y2="536.288" gradientTransform="matrix(0, 80.5683, 80.5683, 0, -42919.3056, 23720.0722)" xlink:href="#linear-gradient-23"/><clipPath id="clip-path-26"><path class="cls-1" d="M369.663.351H391.41a3.443,3.443,0,0,1,3.443,3.443v119.97a3.443,3.443,0,0,1-3.443,3.443h-21.749a3.441,3.441,0,0,1-3.441-3.441V3.794A3.443,3.443,0,0,1,369.663.351Z"/></clipPath><linearGradient id="linear-gradient-26" x1="-294.094" y1="536.288" x2="-293.094" y2="536.288" gradientTransform="matrix(0, 80.5683, 80.5683, 0, -42827.2524, 23720.0722)" xlink:href="#linear-gradient-23"/><clipPath id="clip-path-27"><path class="cls-1" d="M495.612.351a3.4394,3.4394,0,0,0-3.444,3.441V77.19c0,12.685-9.606,22.834-22.6541,22.834-12.8669,0-22.291-10.149-22.291-22.834V3.7921A3.44,3.44,0,0,0,443.781.351h-22.29a3.5636,3.5636,0,0,0-3.444,3.441V78.639c0,27.547,23.014,50.381,51.467,50.381,28.6331,0,51.83-22.834,51.83-50.381V3.7921A3.5625,3.5625,0,0,0,517.902.351Z"/></clipPath><linearGradient id="linear-gradient-27" x1="-294.094" y1="536.288" x2="-293.094" y2="536.288" gradientTransform="matrix(0, 80.5683, 80.5683, 0, -42738.0935, 23720.0722)" xlink:href="#linear-gradient-23"/><clipPath id="clip-path-28"><path class="cls-1" d="M536.197,34.601c0,21.748,19.573,33.889,35.156,40.051,12.325,4.893,18.667,10.693,18.667,18.304,0,6.342-5.254,10.874-12.505,10.874-11.961,0-25.008-9.605-25.732-9.968-1.269-.906-4.713-1.269-6.162,1.088l-8.517,15.04c-1.452,2.538-.907,3.264.905,5.076,4.168,4.167,17.2159,13.954,40.775,13.954,26.641,0,42.77-18.847,42.77-37.514,0-24.646-22.471-35.701-36.607-41.32-14.317-5.799-19.753-10.873-19.753-17.578,0-4.893,4.892-9.243,11.416-9.243,11.055,0,24.285,9.969,25.915,10.874,1.631,1.267,4.893-.362,6.162-2.356l9.243-13.954c.724-1.269,1.086-4.531-1.089-5.8-5.436-3.987-19.933-13.591-38.78-13.591-27.91,0-41.864,18.122-41.864,36.063"/></clipPath><linearGradient id="linear-gradient-28" x1="-294.094" y1="536.2846" x2="-293.094" y2="536.2846" gradientTransform="matrix(0, 80.5683, 80.5683, 0, -42628.9133, 23720.0722)" xlink:href="#linear-gradient-23"/><clipPath id="clip-path-29"><path class="cls-1" d="M19.603,109.743A64.0515,64.0515,0,0,1,.7,63.96,64.5813,64.5813,0,0,1,65.408-.931c15.315,0,31.76,6.336,44.006,16.961a2.98,2.98,0,0,1,1.204,2.17,2.8506,2.8506,0,0,1-.883,2.207L95.443,35.605a3.4634,3.4634,0,0,1-4.425.189c-6.422-5.916-14.264-8.793-23.978-8.793-19.878,0-36.051,16.58-36.051,36.959a36.365,36.365,0,0,0,36.234,36.414,43.05,43.05,0,0,0,16.258-2.923l.221-.089V86.263H71.933a2.9394,2.9394,0,0,1-3.093-2.911V65.409a2.991,2.991,0,0,1,3.093-3.092H108.36a3.0466,3.0466,0,0,1,2.912,3.094l.179,48.749a4.1439,4.1439,0,0,1-1.286,2.602,91.9654,91.9654,0,0,1-44.757,11.727,64.4846,64.4846,0,0,1-45.805-18.746M19.108,17.5A65.29,65.29,0,0,0,0,63.96a64.9739,64.9739,0,0,0,65.408,65.23,92.7261,92.7261,0,0,0,45.154-11.851,4.7745,4.7745,0,0,0,1.59-3.181l-.18-48.749a3.7555,3.7555,0,0,0-3.612-3.793H71.933a3.6692,3.6692,0,0,0-3.794,3.793V83.352a3.6262,3.6262,0,0,0,3.794,3.612H83.001v9.923a42.4836,42.4836,0,0,1-15.778,2.787A35.6646,35.6646,0,0,1,31.69,63.96c0-19.993,15.858-36.258,35.35-36.258,9.529,0,17.217,2.817,23.53,8.631a4.2171,4.2171,0,0,0,5.359-.224l14.309-15.214a3.5357,3.5357,0,0,0,1.08-2.739,3.6651,3.6651,0,0,0-1.459-2.667C97.502,4.769,80.886-1.632,65.408-1.632A64.9444,64.9444,0,0,0,19.108,17.5"/></clipPath><linearGradient id="linear-gradient-29" x1="-294.094" y1="536.288" x2="-293.094" y2="536.288" gradientTransform="matrix(0, 130.8218, 130.8218, 0, -70102.1011, 38457.4879)" gradientUnits="userSpaceOnUse"><stop offset="0" stop-color="#7d4d9e"/><stop offset="0.1443" stop-color="#7c53a1"/><stop offset="0.3353" stop-color="#7b64ab"/><stop offset="0.5527" stop-color="#787fbc"/><stop offset="0.7876" stop-color="#74a5d2"/><stop offset="1" stop-color="#70ceea"/></linearGradient><clipPath id="clip-path-30"><path class="cls-1" d="M132.622,123.764V3.793A3.0971,3.0971,0,0,1,135.716.701h75.028a3.0954,3.0954,0,0,1,3.092,3.092V23.547a3.0954,3.0954,0,0,1-3.092,3.092H160.193V49.813h41.671a3.2137,3.2137,0,0,1,3.093,3.091V72.659a3.0963,3.0963,0,0,1-3.093,3.092H160.193v25.167h50.551a3.0956,3.0956,0,0,1,3.092,3.093v19.753a3.0956,3.0956,0,0,1-3.092,3.093H135.716a3.0973,3.0973,0,0,1-3.094-3.093M135.716,0a3.7983,3.7983,0,0,0-3.795,3.793V123.764a3.7985,3.7985,0,0,0,3.795,3.794h75.028a3.7968,3.7968,0,0,0,3.793-3.794V104.011a3.7977,3.7977,0,0,0-3.793-3.795h-49.85V76.452h40.97a3.7972,3.7972,0,0,0,3.793-3.793V52.904a3.8929,3.8929,0,0,0-3.793-3.792h-40.97V27.34h49.85a3.7966,3.7966,0,0,0,3.793-3.793V3.793A3.7967,3.7967,0,0,0,210.744,0Z"/></clipPath><linearGradient id="linear-gradient-30" x1="-294.094" y1="536.288" x2="-293.094" y2="536.288" gradientTransform="matrix(0, 111.7514, 111.7514, 0, -59757.7019, 32868.6963)" gradientUnits="userSpaceOnUse"><stop offset="0" stop-color="#7d4d9e"/><stop offset="0.1391" stop-color="#7c55a3"/><stop offset="0.3591" stop-color="#7a6cb0"/><stop offset="0.6325" stop-color="#7691c6"/><stop offset="0.946" stop-color="#71c4e4"/><stop offset="1" stop-color="#70ceea"/></linearGradient><clipPath id="clip-path-31"><path class="cls-1" d="M234.466,123.763,234.285,1.799a3.0457,3.0457,0,0,1,3.092-2.91h4.389l72.208,69.492.102.098h.674V3.793A3.0954,3.0954,0,0,1,317.842.701h21.747a3.2145,3.2145,0,0,1,3.092,3.092V125.758a3.0467,3.0467,0,0,1-3.092,2.912h-2.9a5.18,5.18,0,0,1-2.107-.804L262.997,55.92l-.103-.103h-.676v67.947a3.0967,3.0967,0,0,1-3.094,3.093H237.559a3.215,3.215,0,0,1-3.093-3.094M237.377-1.812A3.7555,3.7555,0,0,0,233.584,1.8l.181,121.964a3.8948,3.8948,0,0,0,3.794,3.794h21.565a3.7979,3.7979,0,0,0,3.795-3.794V56.836l71.167,71.525a5.554,5.554,0,0,0,2.603,1.01h2.9a3.7561,3.7561,0,0,0,3.792-3.613V3.793A3.8922,3.8922,0,0,0,339.589,0H317.842a3.7966,3.7966,0,0,0-3.793,3.793V67.482L242.15-1.714l-.101-.098Z"/></clipPath><linearGradient id="linear-gradient-31" x1="-294.094" y1="536.288" x2="-293.094" y2="536.288" gradientTransform="matrix(0, 119.6984, 119.6984, 0, -63904.316, 35212.7666)" xlink:href="#linear-gradient-6"/><clipPath id="clip-path-32"><path class="cls-1" d="M366.571,123.764V3.793A3.2138,3.2138,0,0,1,369.663.701H391.41a3.2145,3.2145,0,0,1,3.092,3.092V123.764a3.2146,3.2146,0,0,1-3.092,3.093H369.663a3.2139,3.2139,0,0,1-3.092-3.093M369.663,0a3.8931,3.8931,0,0,0-3.793,3.793V123.764a3.894,3.894,0,0,0,3.793,3.794H391.41a3.8939,3.8939,0,0,0,3.793-3.794V3.793A3.8931,3.8931,0,0,0,391.41,0Z"/></clipPath><linearGradient id="linear-gradient-32" x1="-294.094" y1="536.288" x2="-293.094" y2="536.288" gradientTransform="matrix(0, 117.1585, 117.1585, 0, -62450.1438, 34456.7013)" xlink:href="#linear-gradient-30"/><clipPath id="clip-path-33"><path class="cls-1" d="M492.519,77.19V3.793A3.0954,3.0954,0,0,1,495.611.701h22.291a3.2145,3.2145,0,0,1,3.092,3.092V78.639c0,27.588-23.093,50.031-51.48,50.031-28.186,0-51.1169-22.443-51.1169-50.031V3.793A3.2155,3.2155,0,0,1,421.491.701h22.29a3.096,3.096,0,0,1,3.092,3.092V77.19c0,13.217,9.734,23.184,22.641,23.184,13.114,0,23.005-9.967,23.005-23.184M495.611,0a3.7975,3.7975,0,0,0-3.794,3.793V77.19c0,12.818-9.587,22.484-22.303,22.484-12.508,0-21.94-9.666-21.94-22.484V3.793A3.7967,3.7967,0,0,0,443.781,0h-22.29a3.8933,3.8933,0,0,0-3.794,3.793V78.639c0,27.974,23.245,50.732,51.817,50.732,28.773,0,52.182-22.758,52.182-50.732V3.793A3.8932,3.8932,0,0,0,517.902,0Z"/></clipPath><linearGradient id="linear-gradient-33" x1="-294.094" y1="536.288" x2="-293.094" y2="536.288" gradientTransform="matrix(0, 92.8941, 92.8941, 0, -49348.2956, 27308.691)" xlink:href="#linear-gradient-6"/><clipPath id="clip-path-34"><path class="cls-1" d="M590.37,92.956c0-7.594-6.001-13.513-18.888-18.63-28.874-11.417-34.935-27.904-34.935-39.725,0-17.2,12.991-35.712,41.514-35.712,17.517,0,31.686,8.473,38.6039,13.543,1.94,1.132,1.652,4.111.973,5.303l-9.247,13.96a6.2711,6.2711,0,0,1-3.851,2.589,2.341,2.341,0,0,1-1.844-.351c-.209-.115-.642-.404-1.241-.804-3.754-2.501-15.18-10.114-24.846-10.114-6.488,0-11.766,4.303-11.766,9.593,0,6.97,5.787,12.157,19.974,17.904,15.62,6.208,36.386,17.214,36.386,40.994,0,23.263-21.567,37.164-42.419,37.164-4.455,0-27.344-.668-40.527-13.851-1.771-1.771-2.178-2.33-.85-4.655l8.512-15.031a3.4143,3.4143,0,0,1,2.292-1.521,4.8428,4.8428,0,0,1,.963-.094,4.514,4.514,0,0,1,2.451.657c.074.037.285.178.615.398,11.988,7.941,20.361,9.608,25.275,9.608,7.449,0,12.855-4.721,12.855-11.225M535.846,34.601c0,12.037,6.138,28.814,35.378,40.377,12.584,4.996,18.445,10.709,18.445,17.978,0,6.099-5.111,10.524-12.154,10.524-4.817,0-13.047-1.647-24.889-9.492-.368-.244-.6039-.398-.64-.412a5.4817,5.4817,0,0,0-3.914-.651,4.0667,4.0667,0,0,0-2.756,1.853l-8.517,15.041c-1.583,2.767-.848,3.684.963,5.495a44.0141,44.0141,0,0,0,13.222,8.613,68.5148,68.5148,0,0,0,27.8,5.444c26.991,0,43.12-19.252,43.12-37.865,0-24.207-21.018-35.362-36.827-41.645-13.873-5.619-19.532-10.619-19.532-17.253,0-4.903,4.963-8.893,11.064-8.893,9.455,0,20.747,7.525,24.458,9.998.634.424,1.055.704,1.243.803a2.9136,2.9136,0,0,0,2.349.458,7.0254,7.0254,0,0,0,4.32-2.898l9.255-13.974c.831-1.458,1.147-4.898-1.185-6.256-6.956-5.101-21.27-13.658-38.988-13.658-29.004,0-42.215,18.876-42.215,36.413"/></clipPath><linearGradient id="linear-gradient-34" x1="-294.094" y1="536.2853" x2="-293.094" y2="536.2853" gradientTransform="matrix(0, 113.8844, 113.8844, 0, -60495.9437, 33480.3466)" xlink:href="#linear-gradient-6"/><clipPath id="clip-path-35"><path class="cls-1" d="M173.012,147.425a2.254,2.254,0,0,0-1.794.946L147.41,175.202V149.693a2.2994,2.2994,0,0,0-2.267-2.268h-8.314a2.2381,2.2381,0,0,0-2.267,2.268v61.599a2.2387,2.2387,0,0,0,2.267,2.268h8.314a2.3,2.3,0,0,0,2.267-2.268V182.476l24.658,30.42a2.049,2.049,0,0,0,1.7.664h10.298a2.0723,2.0723,0,0,0,1.7-3.308l-26.453-31.649,24.659-27.775a2.0105,2.0105,0,0,0-1.512-3.403Z"/></clipPath><linearGradient id="linear-gradient-35" x1="-294.094" y1="536.2918" x2="-293.094" y2="536.2918" gradientTransform="matrix(0, 71.4996, 71.4996, 0, -38184.0216, 21188.2821)" xlink:href="#linear-gradient-23"/><clipPath id="clip-path-36"><path class="cls-1" d="M196.913,147.425h8.785a1.796,1.796,0,0,1,1.796,1.796v62.544a1.795,1.795,0,0,1-1.795,1.795h-8.786a1.795,1.795,0,0,1-1.795-1.795V149.22a1.795,1.795,0,0,1,1.795-1.795Z"/></clipPath><linearGradient id="linear-gradient-36" x1="-294.094" y1="536.288" x2="-293.094" y2="536.288" gradientTransform="matrix(0, 71.4996, 71.4996, 0, -38143.0832, 21188.2821)" xlink:href="#linear-gradient-23"/><clipPath id="clip-path-37"><path class="cls-1" d="M218.073,147.425a1.7944,1.7944,0,0,0-1.795,1.795v7.747a1.7925,1.7925,0,0,0,1.795,1.795h14.454v53.002a1.86,1.86,0,0,0,1.795,1.796h8.787a1.86,1.86,0,0,0,1.794-1.796V158.762h14.455a1.7918,1.7918,0,0,0,1.795-1.795V149.22a1.7937,1.7937,0,0,0-1.795-1.795Z"/></clipPath><linearGradient id="linear-gradient-37" x1="-294.094" y1="536.288" x2="-293.094" y2="536.288" gradientTransform="matrix(0, 71.4996, 71.4996, 0, -38105.6735, 21188.2821)" xlink:href="#linear-gradient-23"/><clipPath id="clip-path-38"><path class="cls-1" d="M263.523,180.588a33.8684,33.8684,0,0,0,34.106,33.915,32.4112,32.4112,0,0,0,22.957-9.166,1.7938,1.7938,0,0,0,.095-2.548l-5.857-6.047a1.7407,1.7407,0,0,0-2.362,0,22.6755,22.6755,0,0,1-14.455,5.384c-12.093,0-21.163-10.013-21.163-21.822,0-11.904,8.976-22.013,21.068-22.013a22.36,22.36,0,0,1,14.55,5.573,1.5127,1.5127,0,0,0,2.362,0l5.762-5.95a1.7584,1.7584,0,0,0-.093-2.647,31.98,31.98,0,0,0-22.864-8.786,34.0313,34.0313,0,0,0-34.106,34.107"/></clipPath><linearGradient id="linear-gradient-38" x1="-294.094" y1="536.2899" x2="-293.094" y2="536.2899" gradientTransform="matrix(0, 71.4996, 71.4996, 0, -38052.042, 21188.2821)" xlink:href="#linear-gradient-23"/><clipPath id="clip-path-39"><path class="cls-1" d="M273.654,204.468a33.3873,33.3873,0,0,1-9.899-23.881,33.9128,33.9128,0,0,1,33.874-33.875,31.8418,31.8418,0,0,1,22.711,8.728,1.6091,1.6091,0,0,1,.57,1.15,1.5714,1.5714,0,0,1-.489,1.163l-5.77,5.959a1.3032,1.3032,0,0,1-.935.487,1.4674,1.4674,0,0,1-1.102-.508,22.5744,22.5744,0,0,0-14.702-5.632c-11.943,0-21.299,9.771-21.299,22.245,0,12.366,9.398,22.053,21.394,22.053a22.8225,22.8225,0,0,0,14.607-5.442,1.505,1.505,0,0,1,2.044-.012l5.871,6.058a1.2421,1.2421,0,0,1,.41.912,1.8223,1.8223,0,0,1-.513,1.3,32.0641,32.0641,0,0,1-22.797,9.099,33.7952,33.7952,0,0,1-23.975-9.804m-10.361-23.881a33.8464,33.8464,0,0,0,10.0359,24.209,34.2561,34.2561,0,0,0,24.3,9.937,32.514,32.514,0,0,0,23.121-9.232,2.2818,2.2818,0,0,0,.65-1.642,1.6852,1.6852,0,0,0-.554-1.232l-5.858-6.049a1.9689,1.9689,0,0,0-2.672-.017,22.36,22.36,0,0,1-14.309,5.334c-11.738,0-20.932-9.483-20.932-21.591,0-12.215,9.153-21.783,20.837-21.783a22.108,22.108,0,0,1,14.386,5.506,1.9522,1.9522,0,0,0,1.379.635c.018,0,.037,0,.054-.001a1.7426,1.7426,0,0,0,1.259-.635l5.76-5.949a2.0364,2.0364,0,0,0,.623-1.5,2.0724,2.0724,0,0,0-.726-1.481,32.2721,32.2721,0,0,0-23.018-8.846,34.3756,34.3756,0,0,0-34.336,34.337"/></clipPath><linearGradient id="linear-gradient-39" x1="-294.094" y1="536.2881" x2="-293.094" y2="536.2881" gradientTransform="matrix(0, 106.5408, 106.5408, 0, -56844.201, 31465.1753)" gradientUnits="userSpaceOnUse"><stop offset="0" stop-color="#7d4d9e"/><stop offset="0.0922" stop-color="#7b5ea8"/><stop offset="0.3878" stop-color="#768ec4"/><stop offset="0.6484" stop-color="#73b1d9"/><stop offset="0.8613" stop-color="#71c6e5"/><stop offset="1" stop-color="#70ceea"/></linearGradient><clipPath id="clip-path-40"><path class="cls-1" d="M376.89,147.425a1.7946,1.7946,0,0,0-1.796,1.795v25.038H344.296V149.22a1.7944,1.7944,0,0,0-1.795-1.795h-8.787a1.8584,1.8584,0,0,0-1.794,1.795v62.544a1.86,1.86,0,0,0,1.794,1.796h8.787a1.7959,1.7959,0,0,0,1.795-1.796V185.687h30.798v26.077a1.7961,1.7961,0,0,0,1.796,1.796h8.691a1.86,1.86,0,0,0,1.795-1.796V149.22a1.8586,1.8586,0,0,0-1.795-1.795Z"/></clipPath><linearGradient id="linear-gradient-40" x1="-294.094" y1="536.288" x2="-293.094" y2="536.288" gradientTransform="matrix(0, 71.4996, 71.4996, 0, -37984.7411, 21188.2821)" xlink:href="#linear-gradient-23"/><clipPath id="clip-path-41"><path class="cls-1" d="M405.324,147.425a1.7938,1.7938,0,0,0-1.795,1.795v62.544a1.7952,1.7952,0,0,0,1.795,1.796h38.451a1.7958,1.7958,0,0,0,1.795-1.796v-7.746a1.7927,1.7927,0,0,0-1.795-1.796H415.81V185.687h23.336a1.7933,1.7933,0,0,0,1.794-1.794v-7.84a1.8555,1.8555,0,0,0-1.794-1.795H415.81V158.762h27.965a1.7925,1.7925,0,0,0,1.795-1.795V149.22a1.7944,1.7944,0,0,0-1.795-1.795Z"/></clipPath><linearGradient id="linear-gradient-41" x1="-294.094" y1="536.288" x2="-293.094" y2="536.288" gradientTransform="matrix(0, 71.4996, 71.4996, 0, -37919.8398, 21188.2821)" xlink:href="#linear-gradient-23"/><clipPath id="clip-path-42"><path class="cls-1" d="M458.897,146.481a1.7761,1.7761,0,0,0-1.795,1.7v63.583a1.86,1.86,0,0,0,1.795,1.796h8.598a1.795,1.795,0,0,0,1.794-1.796V171.139h.095l39.489,43.364h2.268a1.7768,1.7768,0,0,0,1.796-1.699V149.22a1.86,1.86,0,0,0-1.796-1.795h-8.692a1.7942,1.7942,0,0,0-1.794,1.795v39.018h-.095l-39.302-41.757Z"/></clipPath><linearGradient id="linear-gradient-42" x1="-294.094" y1="536.288" x2="-293.094" y2="536.288" gradientTransform="matrix(0, 71.4996, 71.4996, 0, -37859.3702, 21188.2821)" xlink:href="#linear-gradient-23"/><clipPath id="clip-path-43"><path class="cls-1" d="M171.491,148.589a1.8954,1.8954,0,0,1,1.521-.814h9.448a1.6647,1.6647,0,0,1,1.57.964,1.709,1.709,0,0,1-.32,1.857L159.051,178.37l-.201.226,26.639,31.87a1.7255,1.7255,0,0,1,.149,1.803,1.68,1.68,0,0,1-1.571.94H173.768a1.7174,1.7174,0,0,1-1.429-.534L147.06,181.486v29.807a1.9433,1.9433,0,0,1-1.917,1.916h-8.314a1.8963,1.8963,0,0,1-1.917-1.916v-61.6a1.8968,1.8968,0,0,1,1.917-1.918h8.314a1.9444,1.9444,0,0,1,1.917,1.918v26.431Zm1.521-1.515a2.5677,2.5677,0,0,0-2.056,1.065l-23.195,26.139V149.693a2.6541,2.6541,0,0,0-2.618-2.619h-8.314a2.591,2.591,0,0,0-2.618,2.619v61.6a2.5906,2.5906,0,0,0,2.618,2.617h8.314a2.653,2.653,0,0,0,2.618-2.617V183.466l24.015,29.624a2.3752,2.3752,0,0,0,1.992.82h10.299a2.3906,2.3906,0,0,0,2.201-1.332,2.4359,2.4359,0,0,0-.233-2.551L159.776,178.61l24.46-27.554a2.4221,2.4221,0,0,0,.432-2.609,2.383,2.383,0,0,0-2.208-1.373Z"/></clipPath><linearGradient id="linear-gradient-43" x1="-294.094" y1="536.2888" x2="-293.094" y2="536.2888" gradientTransform="matrix(0, 101.4053, 101.4053, 0, -54222.1037, 29968.4229)" gradientUnits="userSpaceOnUse"><stop offset="0" stop-color="#7d4d9e"/><stop offset="0.0209" stop-color="#7d52a1"/><stop offset="0.2453" stop-color="#787ebb"/><stop offset="0.4615" stop-color="#75a1cf"/><stop offset="0.6646" stop-color="#72bade"/><stop offset="0.8496" stop-color="#71c9e7"/><stop offset="1" stop-color="#70ceea"/></linearGradient><clipPath id="clip-path-44"><path class="cls-1" d="M195.469,211.764V149.22a1.503,1.503,0,0,1,1.444-1.445h8.786a1.5032,1.5032,0,0,1,1.445,1.445v62.544a1.5024,1.5024,0,0,1-1.445,1.445h-8.786a1.5023,1.5023,0,0,1-1.444-1.445m1.444-64.69a2.2029,2.2029,0,0,0-2.145,2.146v62.544a2.2029,2.2029,0,0,0,2.145,2.146h8.786a2.2038,2.2038,0,0,0,2.146-2.146V149.22a2.2038,2.2038,0,0,0-2.146-2.146Z"/></clipPath><linearGradient id="linear-gradient-44" x1="-294.094" y1="536.288" x2="-293.094" y2="536.288" gradientTransform="matrix(0, 86.611, 86.611, 0, -46247.144, 25617.033)" gradientUnits="userSpaceOnUse"><stop offset="0" stop-color="#7d4d9e"/><stop offset="0.1052" stop-color="#7c5ca7"/><stop offset="0.7193" stop-color="#73aed7"/><stop offset="1" stop-color="#70ceea"/></linearGradient><clipPath id="clip-path-45"><path class="cls-1" d="M216.628,156.967V149.22a1.447,1.447,0,0,1,1.445-1.445h41.286a1.4467,1.4467,0,0,1,1.444,1.445v7.747a1.4459,1.4459,0,0,1-1.444,1.444H244.552v53.353a1.5007,1.5007,0,0,1-1.443,1.445h-8.787a1.5015,1.5015,0,0,1-1.444-1.445V158.411H218.073a1.4461,1.4461,0,0,1-1.445-1.444m1.445-9.893a2.1488,2.1488,0,0,0-2.146,2.146v7.747a2.1486,2.1486,0,0,0,2.146,2.145h14.104v52.652a2.2023,2.2023,0,0,0,2.145,2.146h8.787a2.2013,2.2013,0,0,0,2.144-2.146V159.112h14.106a2.1469,2.1469,0,0,0,2.144-2.145V149.22a2.1471,2.1471,0,0,0-2.144-2.146Z"/></clipPath><linearGradient id="linear-gradient-45" x1="-294.094" y1="536.288" x2="-293.094" y2="536.288" gradientTransform="matrix(0, 73.5184, 73.5184, 0, -39188.315, 21769.9963)" gradientUnits="userSpaceOnUse"><stop offset="0" stop-color="#7d4d9e"/><stop offset="0.1859" stop-color="#7970b3"/><stop offset="0.4351" stop-color="#7599ca"/><stop offset="0.6625" stop-color="#72b6dc"/><stop offset="0.8583" stop-color="#71c8e6"/><stop offset="1" stop-color="#70ceea"/></linearGradient><clipPath id="clip-path-46"><path class="cls-1" d="M375.446,174.608V149.22a1.4462,1.4462,0,0,1,1.444-1.445h8.691a1.5032,1.5032,0,0,1,1.445,1.445v62.544a1.5024,1.5024,0,0,1-1.445,1.445H376.89a1.4455,1.4455,0,0,1-1.444-1.445V185.337h-31.5v26.427a1.4463,1.4463,0,0,1-1.445,1.445h-8.787a1.5007,1.5007,0,0,1-1.443-1.445V149.22a1.5014,1.5014,0,0,1,1.443-1.445h8.787a1.447,1.447,0,0,1,1.445,1.445v25.388Zm1.444-27.534a2.1486,2.1486,0,0,0-2.145,2.146v24.687H344.646V149.22a2.1479,2.1479,0,0,0-2.145-2.146h-8.787a2.2013,2.2013,0,0,0-2.144,2.146v62.544a2.2013,2.2013,0,0,0,2.144,2.146h8.787a2.148,2.148,0,0,0,2.145-2.146V186.038h30.099v25.726a2.1486,2.1486,0,0,0,2.145,2.146h8.691a2.2031,2.2031,0,0,0,2.146-2.146V149.22a2.2031,2.2031,0,0,0-2.146-2.146Z"/></clipPath><linearGradient id="linear-gradient-46" x1="-294.094" y1="536.288" x2="-293.094" y2="536.288" gradientTransform="matrix(0, 86.5726, 86.5726, 0, -46068.2011, 25607.1375)" gradientUnits="userSpaceOnUse"><stop offset="0" stop-color="#7d4d9e"/><stop offset="0.1055" stop-color="#7b60a9"/><stop offset="0.3948" stop-color="#768fc5"/><stop offset="0.6507" stop-color="#73b1d9"/><stop offset="0.8612" stop-color="#71c6e6"/><stop offset="1" stop-color="#70ceea"/></linearGradient><clipPath id="clip-path-47"><path class="cls-1" d="M403.88,211.764V149.22a1.4461,1.4461,0,0,1,1.444-1.445h38.451a1.4468,1.4468,0,0,1,1.444,1.445v7.747a1.4459,1.4459,0,0,1-1.444,1.444H415.46v16.197h23.686a1.5023,1.5023,0,0,1,1.444,1.445v7.84a1.4453,1.4453,0,0,1-1.444,1.444H415.46v17.236h28.315a1.4453,1.4453,0,0,1,1.444,1.444v7.747a1.4461,1.4461,0,0,1-1.444,1.445H405.324a1.4455,1.4455,0,0,1-1.444-1.445m1.444-64.69a2.1479,2.1479,0,0,0-2.145,2.146v62.544a2.148,2.148,0,0,0,2.145,2.146h38.451a2.1486,2.1486,0,0,0,2.145-2.146v-7.747a2.1486,2.1486,0,0,0-2.145-2.146H416.161V186.038h22.985a2.1478,2.1478,0,0,0,2.145-2.145v-7.84a2.2016,2.2016,0,0,0-2.145-2.146H416.161V159.112h27.614a2.1484,2.1484,0,0,0,2.145-2.145V149.22a2.1486,2.1486,0,0,0-2.145-2.146Z"/></clipPath><linearGradient id="linear-gradient-47" x1="-294.094" y1="536.288" x2="-293.094" y2="536.288" gradientTransform="matrix(0, 73.3627, 73.3627, 0, -38919.0008, 21721.7247)" gradientUnits="userSpaceOnUse"><stop offset="0" stop-color="#7d4d9e"/><stop offset="0.1498" stop-color="#7c52a1"/><stop offset="0.3352" stop-color="#7b61aa"/><stop offset="0.5393" stop-color="#787bb9"/><stop offset="0.7568" stop-color="#759ece"/><stop offset="0.9829" stop-color="#70cae8"/><stop offset="1" stop-color="#70ceea"/></linearGradient><clipPath id="clip-path-48"><path class="cls-1" d="M457.452,211.764V148.181a1.4172,1.4172,0,0,1,1.445-1.349h2.21l39.301,41.757h.598V149.22a1.4466,1.4466,0,0,1,1.4431-1.445h8.692a1.5039,1.5039,0,0,1,1.445,1.445v63.584a1.4186,1.4186,0,0,1-1.445,1.349h-2.113l-39.489-43.364h-.6v40.975a1.4461,1.4461,0,0,1-1.444,1.445h-8.598a1.5017,1.5017,0,0,1-1.445-1.445m1.445-65.633a2.1275,2.1275,0,0,0-2.1461,2.05v63.583a2.2032,2.2032,0,0,0,2.1461,2.146h8.598a2.1471,2.1471,0,0,0,2.144-2.146V171.94l39.08,42.913h2.422a2.1286,2.1286,0,0,0,2.146-2.049V149.22a2.2031,2.2031,0,0,0-2.146-2.146h-8.692a2.1479,2.1479,0,0,0-2.145,2.146v38.235l-38.895-41.324Z"/></clipPath><linearGradient id="linear-gradient-48" x1="-294.094" y1="536.288" x2="-293.094" y2="536.288" gradientTransform="matrix(0, 80.9255, 80.9255, 0, -42914.3327, 23946.3452)" gradientUnits="userSpaceOnUse"><stop offset="0" stop-color="#7d4d9e"/><stop offset="0.1392" stop-color="#7c54a2"/><stop offset="0.3441" stop-color="#7a68ae"/><stop offset="0.5896" stop-color="#7788c1"/><stop offset="0.8642" stop-color="#73b5db"/><stop offset="1" stop-color="#70ceea"/></linearGradient></defs><title>Artboard 1</title><g class="cls-2"><rect class="cls-3" x="361.7869" y="2.093" width="6.35" height="125.114"/></g><g class="cls-4"><rect class="cls-5" x="31.261" y="26.7071" width="56.426" height="73.907"/></g><g class="cls-6"><rect class="cls-7" x="429.1753" y="34.0177" width="100.6953" height="32.4277" transform="translate(412.9263 527.7568) rotate(-88.0407)"/></g><g class="cls-8"><rect class="cls-9" x="524.8465" y="82.1366" width="40.7341" height="57.6849" transform="translate(386.9439 644.3878) rotate(-84.9791)"/></g><g class="cls-10"><rect class="cls-11" x="260.228" y="55.17" width="6.076" height="72.225"/></g><g class="cls-12"><rect class="cls-13" x="87.5474" y="4.4341" width="41.5581" height="38.522" transform="translate(69.0567 127.3964) rotate(-81.5977)"/></g><g class="cls-14"><rect class="cls-15" x="77.202" y="61.6711" width="50.222" height="66.601"/></g><g class="cls-16"><rect class="cls-17" x="158.108" y="-11.3393" width="65.5539" height="72.9987" transform="translate(108.5506 199.2036) rotate(-72.1914)"/></g><g class="cls-18"><rect class="cls-19" x="155.1973" y="42.3378" width="63.7264" height="65.5665" transform="translate(60.6645 232.1524) rotate(-73.0488)"/></g><g class="cls-20"><rect class="cls-21" x="510.7781" y="-3.4115" width="91.2268" height="115.017" transform="translate(1.0172 117.7944) rotate(-12.0961)"/></g><g class="cls-22"><rect class="cls-23" x="159.04" y="145.1821" width="33.508" height="68.464"/></g><g class="cls-24"><rect class="cls-25" x="449.638" y="143.993" width="11.638" height="69.567"/></g><g class="cls-26"><rect class="cls-27" x="397.8859" y="145.182" width="46.864" height="67.983"/></g><g class="cls-28"><rect class="cls-29" x="492.364" y="144.9311" width="19.958" height="45.181"/></g><g class="cls-30"><rect class="cls-31" x="196.06" y="145.179" width="16.894" height="68.756"/></g><g class="cls-32"><rect class="cls-33" x="270.5729" y="159.0289" width="56.885" height="54.2283" transform="translate(-53.085 195.3475) rotate(-33.4006)"/></g><g class="cls-34"><rect class="cls-35" x="343.892" y="145.237" width="43.642" height="29.024"/></g><g class="cls-36"><rect class="cls-37" x="146.268" y="182.6991" width="9.665" height="30.947"/></g><g class="cls-38"><rect class="cls-39" x="244.127" y="158.7791" width="3.765" height="54.781"/></g><g class="cls-40"><rect class="cls-41" x="415.64" y="196.832" width="29.803" height="6.286"/></g><g class="cls-42"><rect class="cls-43" x="371.59" y="185.516" width="4.287" height="28.067"/></g><g class="cls-44"><rect class="cls-45" x="415.575" y="170.562" width="24.7759" height="3.787"/></g><g class="cls-46"><rect class="cls-47" x="0.35" y="-1.2809" width="111.452" height="130.1209"/></g><g class="cls-48"><rect class="cls-49" x="132.272" y="0.351" width="81.915" height="126.856"/></g><g class="cls-50"><rect class="cls-51" x="233.935" y="-1.462" width="109.0959" height="130.482"/></g><g class="cls-52"><rect class="cls-53" x="366.22" y="0.351" width="28.633" height="126.856"/></g><g class="cls-54"><rect class="cls-55" x="418.047" y="0.351" width="103.297" height="128.669"/></g><g class="cls-56"><rect class="cls-57" x="535.6519" y="-1.462" width="85.902" height="130.482"/></g><g class="cls-58"><rect class="cls-59" y="-1.6319" width="112.152" height="130.822"/></g><g class="cls-60"><rect class="cls-61" x="131.921" y="0.0001" width="82.616" height="127.558"/></g><g class="cls-62"><rect class="cls-63" x="233.5839" y="-1.8119" width="109.797" height="131.183"/></g><g class="cls-64"><rect class="cls-65" x="365.8699" width="29.333" height="127.558"/></g><g class="cls-66"><rect class="cls-67" x="417.697" y="0.0001" width="103.999" height="129.371"/></g><g class="cls-68"><rect class="cls-69" x="535.2159" y="-1.812" width="86.688" height="131.183"/></g><g class="cls-70"><rect class="cls-71" x="134.562" y="147.425" width="52.15" height="66.135"/></g><g class="cls-72"><rect class="cls-73" x="195.118" y="147.425" width="12.376" height="66.135"/></g><g class="cls-74"><rect class="cls-75" x="216.278" y="147.425" width="44.875" height="66.135"/></g><g class="cls-76"><rect class="cls-77" x="263.5229" y="146.481" width="57.914" height="68.022"/></g><g class="cls-78"><rect class="cls-79" x="263.293" y="146.2501" width="58.127" height="68.483"/></g><g class="cls-80"><rect class="cls-81" x="331.92" y="147.425" width="55.456" height="66.135"/></g><g class="cls-82"><rect class="cls-83" x="403.529" y="147.425" width="42.041" height="66.135"/></g><g class="cls-84"><rect class="cls-85" x="457.1019" y="146.481" width="55.8351" height="68.022"/></g><g class="cls-86"><rect class="cls-87" x="134.211" y="147.074" width="52.466" height="66.836"/></g><g class="cls-88"><rect class="cls-89" x="194.768" y="147.074" width="13.077" height="66.836"/></g><g class="cls-90"><rect class="cls-91" x="215.927" y="147.074" width="45.576" height="66.836"/></g><g class="cls-92"><rect class="cls-93" x="331.5699" y="147.0741" width="56.157" height="66.836"/></g><g class="cls-94"><rect class="cls-95" x="403.179" y="147.0741" width="42.741" height="66.836"/></g><g class="cls-96"><rect class="cls-97" x="456.751" y="146.131" width="56.536" height="68.722"/></g></svg>