<svg id="Layer_1" data-name="Layer 1" xmlns="http://www.w3.org/2000/svg" xmlns:xlink="http://www.w3.org/1999/xlink" width="935.0643" height="179.465" viewBox="0 0 935.0643 179.465">
  <defs>
    <style>
      .cls-1, .cls-41, .cls-44 {
        fill: none;
      }

      .cls-2 {
        clip-path: url(#clip-path);
      }

      .cls-3 {
        fill: url(#linear-gradient);
      }

      .cls-4 {
        clip-path: url(#clip-path-2);
      }

      .cls-5 {
        fill: url(#linear-gradient-2);
      }

      .cls-6 {
        clip-path: url(#clip-path-3);
      }

      .cls-7 {
        clip-path: url(#clip-path-4);
      }

      .cls-8 {
        fill: url(#linear-gradient-4);
      }

      .cls-9 {
        clip-path: url(#clip-path-5);
      }

      .cls-10 {
        fill: url(#linear-gradient-5);
      }

      .cls-11 {
        clip-path: url(#clip-path-6);
      }

      .cls-12 {
        fill: url(#linear-gradient-6);
      }

      .cls-13 {
        clip-path: url(#clip-path-7);
      }

      .cls-14 {
        fill: url(#linear-gradient-7);
      }

      .cls-15 {
        clip-path: url(#clip-path-8);
      }

      .cls-16 {
        fill: url(#linear-gradient-8);
      }

      .cls-17 {
        clip-path: url(#clip-path-9);
      }

      .cls-18 {
        fill: url(#linear-gradient-9);
      }

      .cls-19 {
        clip-path: url(#clip-path-10);
      }

      .cls-20 {
        fill: url(#linear-gradient-10);
      }

      .cls-21 {
        clip-path: url(#clip-path-11);
      }

      .cls-22 {
        fill: url(#linear-gradient-11);
      }

      .cls-23 {
        clip-path: url(#clip-path-12);
      }

      .cls-24 {
        fill: url(#linear-gradient-12);
      }

      .cls-25 {
        clip-path: url(#clip-path-13);
      }

      .cls-26 {
        fill: url(#linear-gradient-13);
      }

      .cls-27 {
        clip-path: url(#clip-path-14);
      }

      .cls-28 {
        fill: url(#linear-gradient-14);
      }

      .cls-29 {
        clip-path: url(#clip-path-15);
      }

      .cls-30 {
        fill: url(#linear-gradient-15);
      }

      .cls-31 {
        clip-path: url(#clip-path-16);
      }

      .cls-32 {
        fill: url(#linear-gradient-16);
      }

      .cls-33 {
        clip-path: url(#clip-path-17);
      }

      .cls-34 {
        fill: url(#linear-gradient-17);
      }

      .cls-35 {
        clip-path: url(#clip-path-18);
      }

      .cls-36 {
        fill: url(#linear-gradient-18);
      }

      .cls-37 {
        clip-path: url(#clip-path-19);
      }

      .cls-38 {
        fill: url(#linear-gradient-19);
      }

      .cls-39 {
        clip-path: url(#clip-path-20);
      }

      .cls-40 {
        fill: url(#linear-gradient-20);
      }

      .cls-41 {
        stroke: #fff;
      }

      .cls-41, .cls-44 {
        stroke-miterlimit: 10;
      }

      .cls-42 {
        fill: #fff;
      }

      .cls-43 {
        fill: #66ecff;
      }

      .cls-44 {
        stroke: #66ecff;
      }
    </style>
    <clipPath id="clip-path">
      <path class="cls-1" d="M870.1187,31.682c-.23,3.09-.787,12.145,8.595,27.168,2.7671,4.43,3.5581,8.556,4.322,12.545.2411,1.267.475,2.484.759,3.645,1.01,4.175,5.401,17.844,19.426,18.547.0549.003.319.018.749.018,2.16,0,8.4969-.362,13.5389-4.294a2.8558,2.8558,0,0,0-3.511-4.505c-4.318,3.365-10.382,3.081-10.462,3.078-9.824-.493-13.198-10.087-14.192-14.189-.261-1.076-.475-2.203-.699-3.373-.782-4.082-1.754-9.162-5.0859-14.498-8.5-13.609-7.925-21.294-7.736-23.82l.008-.213a26.741,26.741,0,1,1,53.4819,0l.0111.244c.0089.117.8519,11.801-8.3031,23.546a18.671,18.671,0,0,0-4.464,10.718c-.19,1.29-.403,2.755-.807,4.61-1.184,5.443-3.1129,6.465-6.1029,6.421a3.452,3.452,0,0,1-2.6591-1.003c-2.197-2.28-2.075-8.246-1.995-12.195l.02-1.036a2.8626,2.8626,0,0,0-.124-.877,5.53,5.53,0,0,1,1.194-.821q.5806-.333,1.18-.633a10.4816,10.4816,0,0,0,5.959-8.18,1.9019,1.9019,0,0,1,.147-.377q.0135-1.428.026-2.856c-.142-1.267-.2059-2.546-.438-3.796-.764-4.096-1.583-8.181-2.394-12.268-.319-1.606-.674-3.206-1.0129-4.808-.504-.005-1.007-.009-1.512-.014q-.0916,9.78-.182,19.558c-.0121,1.24-.495,1.903-1.3821,1.936-.8529.032-1.377-.47-1.4559-1.482-.317-4.038-.616-8.077-.92-12.116q-.3-3.9675-.5969-7.937c-.5031-.005-1.0081-.009-1.5121-.014q-.4365,5.1375-.8729,10.274-.3166,3.717-.634,7.435c-.066.779-.109,1.562-.209,2.338a1.5052,1.5052,0,0,1-1.558,1.433,1.4542,1.4542,0,0,1-1.4281-1.546c-.031-.502-.002-1.007.0011-1.511q.0569-8.814.116-17.629c.002-.278.032-.556.048-.835-.5029-.005-1.0079-.009-1.512-.014-.962,4.082-1.9971,8.148-2.859,12.251-.538,2.553-.812,5.16-1.2061,7.742-.043.27-.104.538-.156.806q-.0134,1.43-.026,2.857c.1531.673.2771,1.355.463,2.019a10.4518,10.4518,0,0,0,5.2991,6.606c.244.132.502.239.7469.371.551.298,1.0391.486,1.417.738a2.8594,2.8594,0,0,0-.318,1.259l-.019,1.011c-.105,5.184-.2489,12.283,3.59,16.272a9.1309,9.1309,0,0,0,6.672,2.754c.095.001.187.001.2789.001,9.13,0,10.916-8.203,11.5081-10.917.4449-2.05.686-3.686.8779-5.001.4811-3.288.681-4.651,3.316-8.032,10.145-13.014,9.608-25.835,9.499-27.414a32.4527,32.4527,0,0,0-64.905.003"/>
    </clipPath>
    <linearGradient id="linear-gradient" x1="-148.0333" y1="460.9085" x2="-147.0333" y2="460.9085" gradientTransform="matrix(0, 86.656, 86.656, 0, -39037.9818, 12852.5282)" gradientUnits="userSpaceOnUse">
      <stop offset="0" stop-color="#fff" class="stop-start"/>
      <stop offset="1" stop-color="#eca1c5" class="stop-end"/>
    </linearGradient>
    <clipPath id="clip-path-2">
      <path class="cls-1" d="M911.5428,94.716c-8.5961,3.336-17.9121.031-18.0331-.013a1.9642,1.9642,0,0,0-1.353,3.688,34.24,34.24,0,0,0,10.847,1.756,27.5185,27.5185,0,0,0,9.96-1.769,1.964,1.964,0,0,0-1.4209-3.662"/>
    </clipPath>
    <linearGradient id="linear-gradient-2" x1="-148.0333" y1="460.909" x2="-147.0333" y2="460.909" xlink:href="#linear-gradient"/>
    <clipPath id="clip-path-3">
      <path class="cls-1" d="M891.6787,101.508a1.9655,1.9655,0,0,0,1.2,2.506,33.1924,33.1924,0,0,0,10.109,1.571A26.3773,26.3773,0,0,0,912.2458,104a1.9642,1.9642,0,0,0-1.38-3.678c-7.911,2.967-16.562.029-16.6831-.014a1.9612,1.9612,0,0,0-2.5039,1.2"/>
    </clipPath>
    <clipPath id="clip-path-4">
      <path class="cls-1" d="M894.7377,106.332c-.37,0,7.3051,10.118,15.625,0,0,0-7.819,2.835-15.625,0"/>
    </clipPath>
    <linearGradient id="linear-gradient-4" x1="-148.0333" y1="460.9069" x2="-147.0333" y2="460.9069" xlink:href="#linear-gradient"/>
    <clipPath id="clip-path-5">
      <path class="cls-1" d="M711.41,26.133a2.5717,2.5717,0,0,0-1.652.869l-19.309,24.092V28.219a2.116,2.116,0,0,0-2.088-2.086h-10.176a2.0591,2.0591,0,0,0-2.087,2.086V84.928a2.06,2.06,0,0,0,2.087,2.087h10.176a2.1168,2.1168,0,0,0,2.088-2.087V59.009l20.091,27.31a2.38,2.38,0,0,0,1.565.608h12.003a2.0416,2.0416,0,0,0,1.653-3.217l-22.179-28.877,20.353-25.483a2.01,2.01,0,0,0-1.566-3.217Z"/>
    </clipPath>
    <linearGradient id="linear-gradient-5" x1="-148.0333" y1="460.9123" x2="-147.0333" y2="460.9123" gradientTransform="matrix(0, 86.5703, 86.5703, 0, -39199.9237, 12839.0066)" xlink:href="#linear-gradient"/>
    <clipPath id="clip-path-6">
      <path class="cls-1" d="M607.2887,56.206c0,17.377,14.066,30.99,32.021,30.99a46.6378,46.6378,0,0,0,22.203-5.643,1.7434,1.7434,0,0,0,.491-.99l-.091-23.652a1.1912,1.1912,0,0,0-1.14-1.182H642.57a1.1536,1.1536,0,0,0-1.23,1.18v8.705a1.1412,1.1412,0,0,0,1.23,1.092h6.196v5.927l-.313.121a22.35,22.35,0,0,1-8.237,1.441,18.1228,18.1228,0,1,1-.092-36.242,17.4553,17.4553,0,0,1,12.192,4.345,1.4553,1.4553,0,0,0,1.801-.096l7.119-7.354a1.0539,1.0539,0,0,0,.352-.824,1.124,1.124,0,0,0-.476-.817,34.9378,34.9378,0,0,0-21.802-8.168c-17.657,0-32.021,13.982-32.021,31.167"/>
    </clipPath>
    <linearGradient id="linear-gradient-6" x1="-148.0333" y1="460.909" x2="-147.0333" y2="460.909" gradientTransform="matrix(0, 86.5703, 86.5703, 0, -39266.397, 12839.0066)" xlink:href="#linear-gradient"/>
    <clipPath id="clip-path-7">
      <path class="cls-1" d="M593.1467,10.535h145.857v89.581H593.1467ZM582.3887,0V110.352h167.193V0Z"/>
    </clipPath>
    <linearGradient id="linear-gradient-7" x1="-148.0333" y1="460.909" x2="-147.0333" y2="460.909" gradientTransform="matrix(0, 86.5703, 86.5703, 0, -39235.0579, 12839.0066)" xlink:href="#linear-gradient"/>
    <clipPath id="clip-path-8">
      <path class="cls-1" d="M43.8627,59.612a48.7019,48.7019,0,0,0,49.029,48.895,69.0044,69.0044,0,0,0,33.871-8.878,3.3669,3.3669,0,0,0,1.093-2.185l-.136-36.74a2.5667,2.5667,0,0,0-2.458-2.593H97.81a2.5115,2.5115,0,0,0-2.596,2.593V74.227a2.483,2.483,0,0,0,2.596,2.458h8.604v7.921A32.2917,32.2917,0,0,1,94.26,86.791a27.2223,27.2223,0,0,1-27.044-27.179c0-15.022,12.02-27.587,26.906-27.587,6.692,0,12.702,1.775,17.891,6.555a2.8915,2.8915,0,0,0,3.687-.136l10.79-11.473a2.395,2.395,0,0,0-.272-3.687c-9.287-8.059-21.852-12.839-33.326-12.839a48.9334,48.9334,0,0,0-49.029,49.167"/>
    </clipPath>
    <linearGradient id="linear-gradient-8" x1="-148.0333" y1="460.909" x2="-147.0333" y2="460.909" gradientTransform="matrix(0, 77.666, 77.666, 0, -35711.0781, 11526.6127)" xlink:href="#linear-gradient"/>
    <clipPath id="clip-path-9">
      <path class="cls-1" d="M145.8767,11.675a2.5927,2.5927,0,0,0-2.595,2.595v90.412a2.5927,2.5927,0,0,0,2.595,2.595h56.542a2.5933,2.5933,0,0,0,2.595-2.595V89.796a2.594,2.594,0,0,0-2.595-2.595h-37.832V68.763h31.139a2.5936,2.5936,0,0,0,2.596-2.595V51.281a2.6861,2.6861,0,0,0-2.596-2.594h-31.139V31.751h37.832a2.5927,2.5927,0,0,0,2.595-2.595V14.27a2.5933,2.5933,0,0,0-2.595-2.595Z"/>
    </clipPath>
    <linearGradient id="linear-gradient-9" x1="-148.0333" y1="460.909" x2="-147.0333" y2="460.909" gradientTransform="matrix(0, 77.666, 77.666, 0, -35622.7892, 11526.6127)" xlink:href="#linear-gradient"/>
    <clipPath id="clip-path-10">
      <path class="cls-1" d="M222.4907,10.31a2.5661,2.5661,0,0,0-2.594,2.457l.136,91.915a2.6861,2.6861,0,0,0,2.595,2.595h16.253a2.5931,2.5931,0,0,0,2.594-2.595V53.74h.136l53.948,54.22a4.0265,4.0265,0,0,0,1.776.683h2.184a2.5678,2.5678,0,0,0,2.595-2.458V14.27a2.6868,2.6868,0,0,0-2.595-2.595h-16.388a2.5936,2.5936,0,0,0-2.596,2.595V62.754h-.137L225.9047,10.31Z"/>
    </clipPath>
    <linearGradient id="linear-gradient-10" x1="-148.0333" y1="460.909" x2="-147.0333" y2="460.909" gradientTransform="matrix(0, 77.666, 77.666, 0, -35535.932, 11526.6127)" xlink:href="#linear-gradient"/>
    <clipPath id="clip-path-11">
      <path class="cls-1" d="M322.1847,11.675h16.387a2.595,2.595,0,0,1,2.595,2.595v90.413a2.594,2.594,0,0,1-2.594,2.594h-16.389a2.595,2.595,0,0,1-2.595-2.595V14.271A2.596,2.596,0,0,1,322.1847,11.675Z"/>
    </clipPath>
    <linearGradient id="linear-gradient-11" x1="-148.0333" y1="460.909" x2="-147.0333" y2="460.909" gradientTransform="matrix(0, 77.666, 77.666, 0, -35466.559, 11526.6127)" xlink:href="#linear-gradient"/>
    <clipPath id="clip-path-12">
      <path class="cls-1" d="M417.1007,11.675a2.5927,2.5927,0,0,0-2.595,2.595V69.583a16.8536,16.8536,0,0,1-17.072,17.208c-9.697,0-16.8-7.648-16.8-17.208V14.27a2.5918,2.5918,0,0,0-2.594-2.595h-16.798a2.6868,2.6868,0,0,0-2.595,2.595V70.675c0,20.76,17.344,37.968,38.787,37.968,21.578,0,39.06-17.208,39.06-37.968V14.27a2.6859,2.6859,0,0,0-2.594-2.595Z"/>
    </clipPath>
    <linearGradient id="linear-gradient-12" x1="-148.0333" y1="460.909" x2="-147.0333" y2="460.909" gradientTransform="matrix(0, 77.666, 77.666, 0, -35399.3673, 11526.6127)" xlink:href="#linear-gradient"/>
    <clipPath id="clip-path-13">
      <path class="cls-1" d="M447.6867,37.487c0,16.39,14.75,25.539,26.494,30.183,9.288,3.688,14.068,8.059,14.068,13.795,0,4.779-3.96,8.195-9.424,8.195-9.013,0-18.847-7.24-19.392-7.512-.957-.683-3.552-.957-4.644.82L448.37,94.302c-1.093,1.913-.683,2.459.683,3.825,3.141,3.141,12.974,10.516,30.729,10.516,20.077,0,32.232-14.203,32.232-28.271,0-18.573-16.935-26.906-27.588-31.139-10.79-4.371-14.886-8.195-14.886-13.247,0-3.688,3.687-6.966,8.602-6.966,8.332,0,18.302,7.512,19.531,8.195,1.229.955,3.687-.273,4.644-1.776l6.965-10.517c.545-.956.819-3.414-.82-4.37-4.097-3.005-15.022-10.242-29.226-10.242-21.034,0-31.549,13.656-31.549,27.177"/>
    </clipPath>
    <linearGradient id="linear-gradient-13" x1="-148.0333" y1="460.9064" x2="-147.0333" y2="460.9064" gradientTransform="matrix(0, 77.666, 77.666, 0, -35317.0871, 11526.6127)" xlink:href="#linear-gradient"/>
    <clipPath id="clip-path-14">
      <path class="cls-1" d="M172.3407,127.211a1.6919,1.6919,0,0,0-1.349.71l-17.897,20.169V128.914a1.7275,1.7275,0,0,0-1.704-1.703h-6.25a1.6826,1.6826,0,0,0-1.705,1.703v46.305a1.6828,1.6828,0,0,0,1.705,1.704h6.25a1.7277,1.7277,0,0,0,1.704-1.704V153.558l18.535,22.867a1.54,1.54,0,0,0,1.279.498h7.741a1.5569,1.5569,0,0,0,1.278-2.485l-19.885-23.791,18.536-20.879a1.5106,1.5106,0,0,0-1.137-2.557Z"/>
    </clipPath>
    <linearGradient id="linear-gradient-14" x1="-148.0333" y1="460.9133" x2="-147.0333" y2="460.9133" gradientTransform="matrix(0, 47.0744, 47.0744, 0, -21534.1839, 7096.0455)" xlink:href="#linear-gradient"/>
    <clipPath id="clip-path-15">
      <rect class="cls-1" x="188.9577" y="127.211" width="9.303" height="49.712" rx="1.349" ry="1.349"/>
    </clipPath>
    <linearGradient id="linear-gradient-15" x1="-148.0333" y1="460.909" x2="-147.0333" y2="460.909" gradientTransform="matrix(0, 47.0744, 47.0744, 0, -21503.4101, 7096.0455)" xlink:href="#linear-gradient"/>
    <clipPath id="clip-path-16">
      <path class="cls-1" d="M206.2117,127.211a1.3487,1.3487,0,0,0-1.349,1.349v5.823a1.3483,1.3483,0,0,0,1.349,1.35h10.867v39.841a1.3964,1.3964,0,0,0,1.348,1.349h6.605a1.3965,1.3965,0,0,0,1.349-1.349V135.733h10.867a1.3474,1.3474,0,0,0,1.348-1.35V128.56a1.3479,1.3479,0,0,0-1.348-1.349Z"/>
    </clipPath>
    <linearGradient id="linear-gradient-16" x1="-148.0333" y1="460.909" x2="-147.0333" y2="460.909" gradientTransform="matrix(0, 47.0744, 47.0744, 0, -21475.2889, 7096.0455)" xlink:href="#linear-gradient"/>
    <clipPath id="clip-path-17">
      <path class="cls-1" d="M241.0817,152.139a25.4589,25.4589,0,0,0,25.637,25.494,24.3606,24.3606,0,0,0,17.257-6.889,1.35,1.35,0,0,0,.071-1.917l-4.402-4.545a1.31,1.31,0,0,0-1.776,0,17.0429,17.0429,0,0,1-10.866,4.048c-9.09,0-15.908-7.528-15.908-16.404,0-8.949,6.747-16.549,15.838-16.549a16.7993,16.7993,0,0,1,10.936,4.191,1.138,1.138,0,0,0,1.776,0l4.331-4.473a1.3209,1.3209,0,0,0-.07-1.99,24.0438,24.0438,0,0,0-17.187-6.604,25.5816,25.5816,0,0,0-25.637,25.638"/>
    </clipPath>
    <linearGradient id="linear-gradient-17" x1="-148.0333" y1="460.9111" x2="-147.0333" y2="460.9111" gradientTransform="matrix(0, 47.0744, 47.0744, 0, -21434.2705, 7096.0455)" xlink:href="#linear-gradient"/>
    <clipPath id="clip-path-18">
      <path class="cls-1" d="M326.3,127.211a1.349,1.349,0,0,0-1.35,1.349v18.82h-23.151V128.56a1.3481,1.3481,0,0,0-1.349-1.349h-6.605a1.3958,1.3958,0,0,0-1.349,1.349v47.014a1.3958,1.3958,0,0,0,1.349,1.349h6.605a1.3481,1.3481,0,0,0,1.349-1.349V155.972H324.95v19.602a1.349,1.349,0,0,0,1.35,1.349h6.533a1.3958,1.3958,0,0,0,1.349-1.349V128.56a1.3958,1.3958,0,0,0-1.349-1.349Z"/>
    </clipPath>
    <linearGradient id="linear-gradient-18" x1="-148.0333" y1="460.909" x2="-147.0333" y2="460.909" gradientTransform="matrix(0, 47.0744, 47.0744, 0, -21383.6798, 7096.0455)" xlink:href="#linear-gradient"/>
    <clipPath id="clip-path-19">
      <path class="cls-1" d="M347.6737,127.211a1.3481,1.3481,0,0,0-1.349,1.349v47.014a1.3481,1.3481,0,0,0,1.349,1.349h28.904a1.3489,1.3489,0,0,0,1.35-1.349v-5.822a1.3485,1.3485,0,0,0-1.35-1.35h-21.021v-12.43h17.541a1.3489,1.3489,0,0,0,1.351-1.348V148.73a1.3971,1.3971,0,0,0-1.351-1.35h-17.541V135.733h21.021a1.3485,1.3485,0,0,0,1.35-1.35V128.56a1.3489,1.3489,0,0,0-1.35-1.349Z"/>
    </clipPath>
    <linearGradient id="linear-gradient-19" x1="-148.0333" y1="460.909" x2="-147.0333" y2="460.909" gradientTransform="matrix(0, 47.0744, 47.0744, 0, -21334.8929, 7096.0455)" xlink:href="#linear-gradient"/>
    <clipPath id="clip-path-20">
      <path class="cls-1" d="M388.6487,126.501a1.3358,1.3358,0,0,0-1.35,1.278v47.795a1.3974,1.3974,0,0,0,1.35,1.349h6.463a1.3481,1.3481,0,0,0,1.349-1.349V145.036h.071l29.685,32.597h1.704a1.335,1.335,0,0,0,1.35-1.277V128.56a1.3967,1.3967,0,0,0-1.35-1.349h-6.534a1.3488,1.3488,0,0,0-1.349,1.349v29.33h-.071l-29.544-31.389Z"/>
    </clipPath>
    <linearGradient id="linear-gradient-20" x1="-148.0333" y1="460.909" x2="-147.0333" y2="460.909" gradientTransform="matrix(0, 47.0744, 47.0744, 0, -21288.7343, 7096.0455)" xlink:href="#linear-gradient"/>
  </defs>
  <g id="Bulb">
    <g class="cls-2">
      <rect class="cls-3" x="869.3317" y="-0.661" width="66.338" height="94.266"/>
    </g>
    <g class="cls-4">
      <rect class="cls-5" x="890.6158" y="94.332" width="23.861" height="5.815"/>
    </g>
    <g class="cls-6">
      <rect class="cls-5" x="891.3186" y="99.942" width="22.4559" height="5.643"/>
    </g>
    <g class="cls-7">
      <rect class="cls-8" x="894.3676" y="106.332" width="15.995" height="10.118"/>
    </g>
  </g>
  <g id="gk-logo">
    <g id="K">
      <g class="cls-9">
        <rect id="gradient" class="cls-10" x="676.0976" y="26.133" width="50.62" height="60.882"/>
      </g>
    </g>
    <g id="G">
      <g class="cls-11">
        <rect id="gradient-2" data-name="gradient" class="cls-12" x="607.2887" y="25.039" width="54.7149" height="62.157"/>
      </g>
    </g>
    <g id="frame">
      <g class="cls-13">
        <rect id="gradient-3" data-name="gradient" class="cls-14" x="582.3887" width="167.193" height="110.352"/>
      </g>
    </g>
  </g>
  <g id="Genius">
    <g id="G-2" data-name="G">
      <g class="cls-15">
        <rect id="gradient-4" data-name="gradient" class="cls-16" x="43.8627" y="10.445" width="83.993" height="98.062"/>
      </g>
    </g>
    <g id="E">
      <g class="cls-17">
        <rect id="gradient-5" data-name="gradient" class="cls-18" x="143.2817" y="11.675" width="61.732" height="95.602"/>
      </g>
    </g>
    <g id="N">
      <g class="cls-19">
        <rect id="gradient-6" data-name="gradient" class="cls-20" x="219.8967" y="10.31" width="82.217" height="98.333"/>
      </g>
    </g>
    <g id="I">
      <g class="cls-21">
        <rect id="gradient-7" data-name="gradient" class="cls-22" x="319.5887" y="11.675" width="21.578" height="95.602"/>
      </g>
    </g>
    <g id="U">
      <g class="cls-23">
        <rect id="gradient-8" data-name="gradient" class="cls-24" x="358.6467" y="11.675" width="77.8469" height="96.968"/>
      </g>
    </g>
    <g id="S">
      <g class="cls-25">
        <rect id="gradient-9" data-name="gradient" class="cls-26" x="447.2767" y="10.31" width="64.737" height="98.333"/>
      </g>
    </g>
  </g>
  <g id="Kitchen">
    <g id="K-2" data-name="K">
      <g class="cls-27">
        <rect id="gradient-10" data-name="gradient" class="cls-28" x="143.4357" y="127.211" width="39.203" height="49.712"/>
      </g>
    </g>
    <g id="I-2" data-name="I">
      <g class="cls-29">
        <rect id="gradient-11" data-name="gradient" class="cls-30" x="188.9577" y="127.211" width="9.303" height="49.712"/>
      </g>
    </g>
    <g id="T">
      <g class="cls-31">
        <rect id="gradient-12" data-name="gradient" class="cls-32" x="204.8627" y="127.211" width="33.733" height="49.712"/>
      </g>
    </g>
    <g id="C">
      <g class="cls-33">
        <rect id="gradient-13" data-name="gradient" class="cls-34" x="241.0817" y="126.501" width="43.534" height="51.132"/>
      </g>
    </g>
    <g id="H">
      <g class="cls-35">
        <rect id="gradient-14" data-name="gradient" class="cls-36" x="292.4957" y="127.211" width="41.686" height="49.712"/>
      </g>
    </g>
    <g id="E-2" data-name="E">
      <g class="cls-37">
        <rect id="gradient-15" data-name="gradient" class="cls-38" x="346.3247" y="127.211" width="31.603" height="49.712"/>
      </g>
    </g>
    <g id="N-2" data-name="N">
      <g class="cls-39">
        <rect id="gradient-16" data-name="gradient" class="cls-40" x="387.2986" y="126.501" width="41.972" height="51.132"/>
      </g>
    </g>
  </g>
  <g id="height-markers">
    <g id="height-g">
      <line id="h-bar-mid" class="cls-41" y1="29.1499" x2="74.405" y2="29.1499"/>
      <line id="h-bar-bottom" class="cls-41" y1="107.5474" x2="127.967" y2="107.5474"/>
      <rect id="v-bar-fill" class="cls-42" x="24.8067" y="28.504" width="1.549" height="78.623"/>
      <path id="v-bar-border" class="cls-43" d="M26.7427,107.515h-2.324V28.117h2.324Zm-1.548-.775h.774V28.892h-.774Z"/>
      <path id="point-fill" class="cls-42" d="M28.3574,28.5044a2.776,2.776,0,1,1-2.776-2.776,2.7753,2.7753,0,0,1,2.776,2.776"/>
      <path id="point-border" class="cls-43" d="M25.5815,31.6678a3.163,3.163,0,1,1,3.163-3.163,3.1673,3.1673,0,0,1-3.163,3.163m0-5.552a2.3885,2.3885,0,1,0,2.388,2.389,2.3913,2.3913,0,0,0-2.388-2.389"/>
      <rect id="point-fill-2" data-name="point-fill" class="cls-42" x="23.7817" y="105.578" width="3.601" height="3.938"/>
      <path id="point-border-2" data-name="point-border" class="cls-43" d="M27.7687,109.903h-4.375v-4.712h4.375Zm-3.6-.775h2.826v-3.163h-2.826Z"/>
      <line id="v-bar-top" class="cls-41" y1="10.5577" x2="125.857" y2="10.5577"/>
    </g>
    <g id="height-k">
      <path id="v-bar-border-2" data-name="v-bar-border" class="cls-43" d="M124.77,177.3286v-49.721h.774v49.611q.3885-.0555.775-.111v-50.321h-2.324v50.652c.258-.037.517-.073.775-.11"/>
      <path id="v-bar-fill-2" data-name="v-bar-fill" class="cls-42" d="M125.9316,177.1626v-49.965h-1.549v50.186q.774-.111,1.549-.221"/>
      <line id="h-bar" class="cls-41" x1="106.1221" y1="126.71" x2="184.7161" y2="126.71"/>
      <line id="h-bar-2" data-name="h-bar" class="cls-41" x1="106.1221" y1="176.9234" x2="184.7161" y2="176.9234"/>
      <path id="point-fill-3" data-name="point-fill" class="cls-42" d="M127.9331,127.1973a2.7806,2.7806,0,1,1-2.776-2.94,2.8623,2.8623,0,0,1,2.776,2.94"/>
      <path id="point-border-3" data-name="point-border" class="cls-43" d="M125.1572,130.548a3.3566,3.3566,0,1,1,3.163-3.35,3.2644,3.2644,0,0,1-3.163,3.35m0-5.881a2.5348,2.5348,0,1,0,2.388,2.531,2.465,2.465,0,0,0-2.388-2.531"/>
      <rect id="point-fill-4" data-name="point-fill" class="cls-42" x="123.3567" y="174.883" width="3.601" height="4.172"/>
      <path id="point-border-4" data-name="point-border" class="cls-43" d="M127.3447,179.465H122.97v-4.991h4.375Zm-3.601-.82h2.826v-3.351h-2.826Z"/>
    </g>
    <g>
      <line id="h-bar-3" data-name="h-bar" class="cls-41" x1="833.1372" y1="24.3145" x2="874.3872" y2="24.3145"/>
      <line id="h-bar-4" data-name="h-bar" class="cls-41" x1="833.1372" y1="110.8286" x2="919.4241" y2="110.8286"/>
      <rect id="v-bar-fill-3" data-name="v-bar-fill" class="cls-42" x="853.3267" y="25.323" width="1.261" height="86.367"/>
      <path id="v-bar-border-3" data-name="v-bar-border" class="cls-43" d="M854.9037,112.116h-1.892V24.898h1.892Zm-1.262-.851h.63V25.749h-.63Z"/>
      <path id="point-fill-5" data-name="point-fill" class="cls-42" d="M856.2168,25.2134a2.26,2.26,0,1,1-2.259-2.259,2.2592,2.2592,0,0,1,2.259,2.259"/>
      <path id="point-border-5" data-name="point-border" class="cls-44" d="M855.7377,112.746h-3.561v-3.835h3.561Zm-2.93-.63h2.3v-2.574h-2.3Z"/>
      <path id="point-border-6" data-name="point-border" class="cls-43" d="M853.9575,27.7881a2.5745,2.5745,0,1,1,2.574-2.575,2.5782,2.5782,0,0,1-2.574,2.575m0-4.519a1.944,1.944,0,1,0,1.944,1.944,1.9468,1.9468,0,0,0-1.944-1.944"/>
      <rect id="point-fill-6" data-name="point-fill" class="cls-42" x="852.4927" y="109.226" width="2.931" height="3.205"/>
    </g>
    <g id="height-gk">
      <line id="h-bar-top" class="cls-41" x1="547.4346" y1="24.3145" x2="584.4445" y2="24.3145"/>
      <line id="h-bar-bottom-2" data-name="h-bar-bottom" class="cls-41" x1="547.4346" y1="109.772" x2="584.4445" y2="109.772"/>
      <rect id="v-bar-fill-4" data-name="v-bar-fill" class="cls-42" x="567.6247" y="25.286" width="1.261" height="85.162"/>
      <path id="v-bar-border-4" data-name="v-bar-border" class="cls-43" d="M569.2007,110.868H567.31V24.867h1.891Zm-1.261-.839h.63V25.706h-.63Z"/>
      <path id="point-fill-7" data-name="point-fill" class="cls-42" d="M570.5142,25.1773a2.2592,2.2592,0,1,1-2.259-2.228,2.2438,2.2438,0,0,1,2.259,2.228"/>
      <path id="point-border-7" data-name="point-border" class="cls-43" d="M568.2549,27.7163a2.5392,2.5392,0,1,1,2.574-2.539,2.56,2.56,0,0,1-2.574,2.539m0-4.456a1.9172,1.9172,0,1,0,1.944,1.917,1.932,1.932,0,0,0-1.944-1.917"/>
      <rect id="point-fill-8" data-name="point-fill" class="cls-42" x="566.7897" y="108.019" width="2.931" height="3.16"/>
      <path id="point-border-8" data-name="point-border" class="cls-43" d="M570.0357,111.49h-3.561v-3.782h3.561Zm-2.931-.622h2.3v-2.539h-2.3Z"/>
    </g>
  </g>
</svg>
