<svg id="Layer_1" data-name="Layer 1" xmlns="http://www.w3.org/2000/svg" xmlns:xlink="http://www.w3.org/1999/xlink" width="935.064" height="179.465" viewBox="0 0 935.0643 179.465"><defs><style>.cls-1,.cls-41,.cls-44{fill:none}.cls-2{clip-path:url(#clip-path)}.cls-3{fill:url(#linear-gradient)}.cls-4{clip-path:url(#clip-path-2)}.cls-5{fill:url(#linear-gradient-2)}.cls-6{clip-path:url(#clip-path-3)}.cls-7{clip-path:url(#clip-path-4)}.cls-8{fill:url(#linear-gradient-4)}.cls-9{clip-path:url(#clip-path-5)}.cls-10{fill:url(#linear-gradient-5)}.cls-11{clip-path:url(#clip-path-6)}.cls-12{fill:url(#linear-gradient-6)}.cls-13{clip-path:url(#clip-path-7)}.cls-14{fill:url(#linear-gradient-7)}.cls-15{clip-path:url(#clip-path-8)}.cls-16{fill:url(#linear-gradient-8)}.cls-17{clip-path:url(#clip-path-9)}.cls-18{fill:url(#linear-gradient-9)}.cls-19{clip-path:url(#clip-path-10)}.cls-20{fill:url(#linear-gradient-10)}.cls-21{clip-path:url(#clip-path-11)}.cls-22{fill:url(#linear-gradient-11)}.cls-23{clip-path:url(#clip-path-12)}.cls-24{fill:url(#linear-gradient-12)}.cls-25{clip-path:url(#clip-path-13)}.cls-26{fill:url(#linear-gradient-13)}.cls-27{clip-path:url(#clip-path-14)}.cls-28{fill:url(#linear-gradient-14)}.cls-29{clip-path:url(#clip-path-15)}.cls-30{fill:url(#linear-gradient-15)}.cls-31{clip-path:url(#clip-path-16)}.cls-32{fill:url(#linear-gradient-16)}.cls-33{clip-path:url(#clip-path-17)}.cls-34{fill:url(#linear-gradient-17)}.cls-35{clip-path:url(#clip-path-18)}.cls-36{fill:url(#linear-gradient-18)}.cls-37{clip-path:url(#clip-path-19)}.cls-38{fill:url(#linear-gradient-19)}.cls-39{clip-path:url(#clip-path-20)}.cls-40{fill:url(#linear-gradient-20)}.cls-41{stroke:#fff}.cls-41,.cls-44{stroke-miterlimit:10}.cls-42{fill:#fff}.cls-43{fill:#66ecff}.cls-44{stroke:#66ecff}</style><clipPath id="clip-path"><path class="cls-1" d="M870.119 31.682c-.23 3.09-.787 12.145 8.595 27.168 2.767 4.43 3.558 8.556 4.322 12.545.24 1.267.475 2.484.759 3.645 1.01 4.175 5.4 17.844 19.426 18.547.055.003.319.018.749.018 2.16 0 8.497-.362 13.539-4.294a2.856 2.856 0 0 0-3.511-4.505c-4.318 3.365-10.382 3.081-10.462 3.078-9.824-.493-13.198-10.087-14.192-14.189-.261-1.076-.475-2.203-.7-3.373-.781-4.082-1.753-9.162-5.085-14.498-8.5-13.609-7.925-21.294-7.736-23.82l.008-.213a26.741 26.741 0 1 1 53.482 0l.01.244c.01.117.853 11.801-8.302 23.546a18.671 18.671 0 0 0-4.464 10.718c-.19 1.29-.403 2.755-.807 4.61-1.184 5.443-3.113 6.465-6.103 6.421a3.452 3.452 0 0 1-2.66-1.003c-2.196-2.28-2.074-8.246-1.994-12.195l.02-1.036a2.863 2.863 0 0 0-.124-.877 5.53 5.53 0 0 1 1.194-.821q.58-.333 1.18-.633a10.482 10.482 0 0 0 5.959-8.18 1.902 1.902 0 0 1 .147-.377l.026-2.856c-.142-1.267-.206-2.546-.438-3.796-.764-4.096-1.583-8.181-2.394-12.268-.32-1.606-.674-3.206-1.013-4.808l-1.512-.014-.182 19.558c-.012 1.24-.495 1.903-1.382 1.936-.853.032-1.377-.47-1.456-1.482-.317-4.038-.616-8.077-.92-12.116q-.3-3.967-.597-7.937l-1.512-.014-.873 10.274-.634 7.435c-.066.779-.11 1.562-.21 2.338a1.505 1.505 0 0 1-1.557 1.433 1.454 1.454 0 0 1-1.428-1.546c-.031-.502-.002-1.007 0-1.511l.117-17.629c.002-.278.032-.556.048-.835l-1.512-.014c-.962 4.082-1.997 8.148-2.86 12.251-.537 2.553-.811 5.16-1.205 7.742-.043.27-.104.538-.156.806l-.026 2.857c.153.673.277 1.355.463 2.019a10.452 10.452 0 0 0 5.299 6.606c.244.132.502.239.747.371.55.298 1.039.486 1.417.738a2.86 2.86 0 0 0-.318 1.259l-.02 1.011c-.104 5.184-.248 12.283 3.59 16.272a9.13 9.13 0 0 0 6.673 2.754l.279.001c9.13 0 10.916-8.203 11.508-10.917.445-2.05.686-3.686.878-5.001.48-3.288.68-4.651 3.316-8.032 10.145-13.014 9.608-25.835 9.499-27.414a32.453 32.453 0 0 0-64.905.003"/></clipPath><clipPath id="clip-path-2"><path class="cls-1" d="M911.543 94.716c-8.596 3.336-17.912.031-18.033-.013a1.964 1.964 0 0 0-1.353 3.688 34.24 34.24 0 0 0 10.847 1.756 27.518 27.518 0 0 0 9.96-1.769 1.964 1.964 0 0 0-1.421-3.662"/></clipPath><linearGradient id="linear-gradient-2" x1="-148.033" y1="460.909" x2="-147.033" y2="460.909" xlink:href="#linear-gradient"/><clipPath id="clip-path-3"><path class="cls-1" d="M891.679 101.508a1.966 1.966 0 0 0 1.2 2.506 33.192 33.192 0 0 0 10.109 1.571 26.377 26.377 0 0 0 9.258-1.585 1.964 1.964 0 0 0-1.38-3.678c-7.911 2.967-16.562.029-16.683-.014a1.961 1.961 0 0 0-2.504 1.2"/></clipPath><clipPath id="clip-path-4"><path class="cls-1" d="M894.738 106.332c-.37 0 7.305 10.118 15.625 0 0 0-7.82 2.835-15.625 0"/></clipPath><linearGradient id="linear-gradient-4" x1="-148.033" y1="460.907" x2="-147.033" y2="460.907" xlink:href="#linear-gradient"/><clipPath id="clip-path-5"><path class="cls-1" d="M711.41 26.133a2.572 2.572 0 0 0-1.652.869l-19.309 24.092V28.219a2.116 2.116 0 0 0-2.088-2.086h-10.176a2.06 2.06 0 0 0-2.087 2.086v56.709a2.06 2.06 0 0 0 2.087 2.087h10.176a2.117 2.117 0 0 0 2.088-2.087V59.009l20.091 27.31a2.38 2.38 0 0 0 1.565.608h12.003a2.042 2.042 0 0 0 1.653-3.217l-22.179-28.877 20.353-25.483a2.01 2.01 0 0 0-1.566-3.217z"/></clipPath><linearGradient id="linear-gradient-5" x1="-148.033" y1="460.912" x2="-147.033" y2="460.912" gradientTransform="matrix(0 86.5703 86.5703 0 -39199.924 12839.007)" xlink:href="#linear-gradient"/><clipPath id="clip-path-6"><path class="cls-1" d="M607.289 56.206c0 17.377 14.066 30.99 32.02 30.99a46.638 46.638 0 0 0 22.204-5.643 1.743 1.743 0 0 0 .49-.99l-.09-23.652a1.191 1.191 0 0 0-1.14-1.182H642.57a1.154 1.154 0 0 0-1.23 1.18v8.705a1.141 1.141 0 0 0 1.23 1.092h6.196v5.927l-.313.121a22.35 22.35 0 0 1-8.237 1.441 18.123 18.123 0 1 1-.092-36.242 17.455 17.455 0 0 1 12.192 4.345 1.455 1.455 0 0 0 1.801-.096l7.119-7.354a1.054 1.054 0 0 0 .352-.824 1.124 1.124 0 0 0-.476-.817 34.938 34.938 0 0 0-21.802-8.168c-17.657 0-32.021 13.982-32.021 31.167"/></clipPath><linearGradient id="linear-gradient-6" x1="-148.033" y1="460.909" x2="-147.033" y2="460.909" gradientTransform="matrix(0 86.5703 86.5703 0 -39266.397 12839.007)" xlink:href="#linear-gradient"/><clipPath id="clip-path-7"><path class="cls-1" d="M593.147 10.535h145.857v89.581H593.147zM582.389 0v110.352h167.193V0z"/></clipPath><linearGradient id="linear-gradient-7" x1="-148.033" y1="460.909" x2="-147.033" y2="460.909" gradientTransform="matrix(0 86.5703 86.5703 0 -39235.058 12839.007)" xlink:href="#linear-gradient"/><clipPath id="clip-path-8"><path class="cls-1" d="M43.863 59.612a48.702 48.702 0 0 0 49.029 48.895 69.004 69.004 0 0 0 33.87-8.878 3.367 3.367 0 0 0 1.094-2.185l-.136-36.74a2.567 2.567 0 0 0-2.458-2.593H97.81a2.511 2.511 0 0 0-2.596 2.593v13.523a2.483 2.483 0 0 0 2.596 2.458h8.604v7.921a32.292 32.292 0 0 1-12.154 2.185 27.222 27.222 0 0 1-27.044-27.179c0-15.022 12.02-27.587 26.906-27.587 6.692 0 12.702 1.775 17.891 6.555a2.892 2.892 0 0 0 3.687-.136l10.79-11.473a2.395 2.395 0 0 0-.272-3.687c-9.287-8.059-21.852-12.839-33.326-12.839a48.933 48.933 0 0 0-49.029 49.167"/></clipPath><linearGradient id="linear-gradient-8" x1="-148.033" y1="460.909" x2="-147.033" y2="460.909" gradientTransform="matrix(0 77.666 77.666 0 -35711.078 11526.613)" xlink:href="#linear-gradient"/><clipPath id="clip-path-9"><path class="cls-1" d="M145.877 11.675a2.593 2.593 0 0 0-2.595 2.595v90.412a2.593 2.593 0 0 0 2.595 2.595h56.542a2.593 2.593 0 0 0 2.595-2.595V89.796a2.594 2.594 0 0 0-2.595-2.595h-37.832V68.763h31.139a2.594 2.594 0 0 0 2.596-2.595V51.281a2.686 2.686 0 0 0-2.596-2.594h-31.14V31.751h37.833a2.593 2.593 0 0 0 2.595-2.595V14.27a2.593 2.593 0 0 0-2.595-2.595z"/></clipPath><linearGradient id="linear-gradient-9" x1="-148.033" y1="460.909" x2="-147.033" y2="460.909" gradientTransform="matrix(0 77.666 77.666 0 -35622.79 11526.613)" xlink:href="#linear-gradient"/><clipPath id="clip-path-10"><path class="cls-1" d="M222.49 10.31a2.566 2.566 0 0 0-2.593 2.457l.136 91.915a2.686 2.686 0 0 0 2.595 2.595h16.253a2.593 2.593 0 0 0 2.594-2.595V53.74h.136l53.948 54.22a4.027 4.027 0 0 0 1.776.683h2.184a2.568 2.568 0 0 0 2.595-2.458V14.27a2.687 2.687 0 0 0-2.595-2.595H283.13a2.594 2.594 0 0 0-2.596 2.595v48.484h-.137L225.905 10.31z"/></clipPath><linearGradient id="linear-gradient-10" x1="-148.033" y1="460.909" x2="-147.033" y2="460.909" gradientTransform="matrix(0 77.666 77.666 0 -35535.932 11526.613)" xlink:href="#linear-gradient"/><clipPath id="clip-path-11"><path class="cls-1" d="M322.185 11.675h16.387a2.595 2.595 0 0 1 2.595 2.595v90.413a2.594 2.594 0 0 1-2.594 2.594h-16.39a2.595 2.595 0 0 1-2.594-2.595V14.271a2.596 2.596 0 0 1 2.596-2.596z"/></clipPath><linearGradient id="linear-gradient-11" x1="-148.033" y1="460.909" x2="-147.033" y2="460.909" gradientTransform="matrix(0 77.666 77.666 0 -35466.559 11526.613)" xlink:href="#linear-gradient"/><clipPath id="clip-path-12"><path class="cls-1" d="M417.1 11.675a2.593 2.593 0 0 0-2.594 2.595v55.313a16.854 16.854 0 0 1-17.072 17.208c-9.697 0-16.8-7.648-16.8-17.208V14.27a2.592 2.592 0 0 0-2.594-2.595h-16.798a2.687 2.687 0 0 0-2.595 2.595v56.405c0 20.76 17.344 37.968 38.787 37.968 21.578 0 39.06-17.208 39.06-37.968V14.27a2.686 2.686 0 0 0-2.594-2.595z"/></clipPath><linearGradient id="linear-gradient-12" x1="-148.033" y1="460.909" x2="-147.033" y2="460.909" gradientTransform="matrix(0 77.666 77.666 0 -35399.367 11526.613)" xlink:href="#linear-gradient"/><clipPath id="clip-path-13"><path class="cls-1" d="M447.687 37.487c0 16.39 14.75 25.539 26.494 30.183 9.288 3.688 14.068 8.059 14.068 13.795 0 4.779-3.96 8.195-9.424 8.195-9.013 0-18.847-7.24-19.392-7.512-.957-.683-3.552-.957-4.644.82l-6.419 11.334c-1.093 1.913-.683 2.459.683 3.825 3.141 3.141 12.974 10.516 30.729 10.516 20.077 0 32.232-14.203 32.232-28.271 0-18.573-16.935-26.906-27.588-31.139-10.79-4.371-14.886-8.195-14.886-13.247 0-3.688 3.687-6.966 8.602-6.966 8.332 0 18.302 7.512 19.531 8.195 1.229.955 3.687-.273 4.644-1.776l6.965-10.517c.545-.956.819-3.414-.82-4.37-4.097-3.005-15.022-10.242-29.226-10.242-21.034 0-31.549 13.656-31.549 27.177"/></clipPath><linearGradient id="linear-gradient-13" x1="-148.033" y1="460.906" x2="-147.033" y2="460.906" gradientTransform="matrix(0 77.666 77.666 0 -35317.087 11526.613)" xlink:href="#linear-gradient"/><clipPath id="clip-path-14"><path class="cls-1" d="M172.34 127.211a1.692 1.692 0 0 0-1.348.71l-17.897 20.169v-19.176a1.728 1.728 0 0 0-1.704-1.703h-6.25a1.683 1.683 0 0 0-1.705 1.703v46.305a1.683 1.683 0 0 0 1.705 1.704h6.25a1.728 1.728 0 0 0 1.704-1.704v-21.661l18.535 22.867a1.54 1.54 0 0 0 1.279.498h7.74a1.557 1.557 0 0 0 1.279-2.485l-19.885-23.791 18.536-20.879a1.51 1.51 0 0 0-1.137-2.557z"/></clipPath><linearGradient id="linear-gradient-14" x1="-148.033" y1="460.913" x2="-147.033" y2="460.913" gradientTransform="matrix(0 47.0744 47.0744 0 -21534.184 7096.046)" xlink:href="#linear-gradient"/><clipPath id="clip-path-15"><rect class="cls-1" x="188.958" y="127.211" width="9.303" height="49.712" rx="1.349" ry="1.349"/></clipPath><linearGradient id="linear-gradient-15" x1="-148.033" y1="460.909" x2="-147.033" y2="460.909" gradientTransform="matrix(0 47.0744 47.0744 0 -21503.41 7096.046)" xlink:href="#linear-gradient"/><clipPath id="clip-path-16"><path class="cls-1" d="M206.212 127.211a1.349 1.349 0 0 0-1.35 1.349v5.823a1.348 1.348 0 0 0 1.35 1.35h10.867v39.841a1.396 1.396 0 0 0 1.348 1.349h6.605a1.397 1.397 0 0 0 1.349-1.349v-39.841h10.867a1.347 1.347 0 0 0 1.348-1.35v-5.823a1.348 1.348 0 0 0-1.348-1.349z"/></clipPath><linearGradient id="linear-gradient-16" x1="-148.033" y1="460.909" x2="-147.033" y2="460.909" gradientTransform="matrix(0 47.0744 47.0744 0 -21475.289 7096.046)" xlink:href="#linear-gradient"/><clipPath id="clip-path-17"><path class="cls-1" d="M241.082 152.139a25.459 25.459 0 0 0 25.637 25.494 24.36 24.36 0 0 0 17.257-6.889 1.35 1.35 0 0 0 .07-1.917l-4.401-4.545a1.31 1.31 0 0 0-1.776 0 17.043 17.043 0 0 1-10.866 4.048c-9.09 0-15.908-7.528-15.908-16.404 0-8.949 6.747-16.549 15.838-16.549a16.8 16.8 0 0 1 10.936 4.191 1.138 1.138 0 0 0 1.776 0l4.33-4.473a1.32 1.32 0 0 0-.07-1.99 24.044 24.044 0 0 0-17.186-6.604 25.582 25.582 0 0 0-25.637 25.638"/></clipPath><linearGradient id="linear-gradient-17" x1="-148.033" y1="460.911" x2="-147.033" y2="460.911" gradientTransform="matrix(0 47.0744 47.0744 0 -21434.27 7096.046)" xlink:href="#linear-gradient"/><clipPath id="clip-path-18"><path class="cls-1" d="M326.3 127.211a1.349 1.349 0 0 0-1.35 1.349v18.82h-23.151v-18.82a1.348 1.348 0 0 0-1.349-1.349h-6.605a1.396 1.396 0 0 0-1.349 1.349v47.014a1.396 1.396 0 0 0 1.349 1.349h6.605a1.348 1.348 0 0 0 1.349-1.349v-19.602h23.151v19.602a1.349 1.349 0 0 0 1.35 1.349h6.533a1.396 1.396 0 0 0 1.349-1.349V128.56a1.396 1.396 0 0 0-1.349-1.349z"/></clipPath><linearGradient id="linear-gradient-18" x1="-148.033" y1="460.909" x2="-147.033" y2="460.909" gradientTransform="matrix(0 47.0744 47.0744 0 -21383.68 7096.046)" xlink:href="#linear-gradient"/><clipPath id="clip-path-19"><path class="cls-1" d="M347.674 127.211a1.348 1.348 0 0 0-1.35 1.349v47.014a1.348 1.348 0 0 0 1.35 1.349h28.904a1.349 1.349 0 0 0 1.35-1.349v-5.822a1.349 1.349 0 0 0-1.35-1.35h-21.021v-12.43h17.54a1.349 1.349 0 0 0 1.352-1.348v-5.894a1.397 1.397 0 0 0-1.351-1.35h-17.541v-11.647h21.02a1.349 1.349 0 0 0 1.35-1.35v-5.823a1.349 1.349 0 0 0-1.35-1.349z"/></clipPath><linearGradient id="linear-gradient-19" x1="-148.033" y1="460.909" x2="-147.033" y2="460.909" gradientTransform="matrix(0 47.0744 47.0744 0 -21334.893 7096.046)" xlink:href="#linear-gradient"/><clipPath id="clip-path-20"><path class="cls-1" d="M388.649 126.501a1.336 1.336 0 0 0-1.35 1.278v47.795a1.397 1.397 0 0 0 1.35 1.349h6.463a1.348 1.348 0 0 0 1.349-1.349v-30.538h.07l29.686 32.597h1.704a1.335 1.335 0 0 0 1.35-1.277V128.56a1.397 1.397 0 0 0-1.35-1.349h-6.534a1.349 1.349 0 0 0-1.35 1.349v29.33h-.07l-29.544-31.389z"/></clipPath><linearGradient id="linear-gradient-20" x1="-148.033" y1="460.909" x2="-147.033" y2="460.909" gradientTransform="matrix(0 47.0744 47.0744 0 -21288.734 7096.046)" xlink:href="#linear-gradient"/></defs><g id="Bulb"><g class="cls-2"><path class="cls-3" d="M869.332-.661h66.338v94.266h-66.338z"/></g><g class="cls-4"><path class="cls-5" d="M890.616 94.332h23.861v5.815h-23.861z"/></g><g class="cls-6"><path class="cls-5" d="M891.319 99.942h22.456v5.643h-22.456z"/></g><g class="cls-7"><path class="cls-8" d="M894.368 106.332h15.995v10.118h-15.995z"/></g></g><g id="gk-logo"><g class="cls-9" id="K"><path id="gradient" class="cls-10" d="M676.098 26.133h50.62v60.882h-50.62z"/></g><g class="cls-11" id="G"><path id="gradient-2" data-name="gradient" class="cls-12" d="M607.289 25.039h54.715v62.157h-54.715z"/></g><g class="cls-13" id="frame"><path id="gradient-3" data-name="gradient" class="cls-14" d="M582.389 0h167.193v110.352H582.389z"/></g></g><g id="Genius"><g class="cls-15" id="G-2" data-name="G"><path id="gradient-4" data-name="gradient" class="cls-16" d="M43.863 10.445h83.993v98.062H43.863z"/></g><g class="cls-17" id="E"><path id="gradient-5" data-name="gradient" class="cls-18" d="M143.282 11.675h61.732v95.602h-61.732z"/></g><g class="cls-19" id="N"><path id="gradient-6" data-name="gradient" class="cls-20" d="M219.897 10.31h82.217v98.333h-82.217z"/></g><g class="cls-21" id="I"><path id="gradient-7" data-name="gradient" class="cls-22" d="M319.589 11.675h21.578v95.602h-21.578z"/></g><g class="cls-23" id="U"><path id="gradient-8" data-name="gradient" class="cls-24" d="M358.647 11.675h77.847v96.968h-77.847z"/></g><g class="cls-25" id="S"><path id="gradient-9" data-name="gradient" class="cls-26" d="M447.277 10.31h64.737v98.333h-64.737z"/></g></g><g id="Kitchen"><g class="cls-27" id="K-2" data-name="K"><path id="gradient-10" data-name="gradient" class="cls-28" d="M143.436 127.211h39.203v49.712h-39.203z"/></g><g class="cls-29" id="I-2" data-name="I"><path id="gradient-11" data-name="gradient" class="cls-30" d="M188.958 127.211h9.303v49.712h-9.303z"/></g><g class="cls-31" id="T"><path id="gradient-12" data-name="gradient" class="cls-32" d="M204.863 127.211h33.733v49.712h-33.733z"/></g><g class="cls-33" id="C"><path id="gradient-13" data-name="gradient" class="cls-34" d="M241.082 126.501h43.534v51.132h-43.534z"/></g><g class="cls-35" id="H"><path id="gradient-14" data-name="gradient" class="cls-36" d="M292.496 127.211h41.686v49.712h-41.686z"/></g><g class="cls-37" id="E-2" data-name="E"><path id="gradient-15" data-name="gradient" class="cls-38" d="M346.325 127.211h31.603v49.712h-31.603z"/></g><g class="cls-39" id="N-2" data-name="N"><path id="gradient-16" data-name="gradient" class="cls-40" d="M387.299 126.501h41.972v51.132h-41.972z"/></g></g><g id="height-markers"><g id="height-g"><path id="h-bar-mid" class="cls-41" d="M0 29.15h74.405"/><path id="h-bar-bottom" class="cls-41" d="M0 107.547h127.967"/><path id="v-bar-fill" class="cls-42" d="M24.807 28.504h1.549v78.623h-1.549z"/><path id="v-bar-border" class="cls-43" d="M26.743 107.515h-2.324V28.117h2.324zm-1.548-.775h.774V28.892h-.774z"/><path id="point-fill" class="cls-42" d="M28.357 28.504a2.776 2.776 0 1 1-2.776-2.776 2.775 2.775 0 0 1 2.776 2.776"/><path id="point-border" class="cls-43" d="M25.581 31.668a3.163 3.163 0 1 1 3.163-3.163 3.167 3.167 0 0 1-3.163 3.163m0-5.552a2.389 2.389 0 1 0 2.388 2.389 2.391 2.391 0 0 0-2.388-2.39"/><path id="point-fill-2" data-name="point-fill" class="cls-42" d="M23.782 105.578h3.601v3.938h-3.601z"/><path id="point-border-2" data-name="point-border" class="cls-43" d="M27.769 109.903h-4.375v-4.712h4.375zm-3.6-.775h2.826v-3.163h-2.826z"/><path id="v-bar-top" class="cls-41" d="M0 10.558h125.857"/></g><g id="height-k"><path id="v-bar-border-2" data-name="v-bar-border" class="cls-43" d="M124.77 177.329v-49.721h.774v49.61l.775-.11v-50.321h-2.324v50.652l.775-.11"/><path id="v-bar-fill-2" data-name="v-bar-fill" class="cls-42" d="M125.932 177.163v-49.965h-1.55v50.186l1.55-.221"/><path id="h-bar" class="cls-41" d="M106.122 126.71h78.594"/><path id="h-bar-2" data-name="h-bar" class="cls-41" d="M106.122 176.923h78.594"/><path id="point-fill-3" data-name="point-fill" class="cls-42" d="M127.933 127.197a2.78 2.78 0 1 1-2.776-2.94 2.862 2.862 0 0 1 2.776 2.94"/><path id="point-border-3" data-name="point-border" class="cls-43" d="M125.157 130.548a3.357 3.357 0 1 1 3.163-3.35 3.264 3.264 0 0 1-3.163 3.35m0-5.881a2.535 2.535 0 1 0 2.388 2.531 2.465 2.465 0 0 0-2.388-2.531"/><path id="point-fill-4" data-name="point-fill" class="cls-42" d="M123.357 174.883h3.601v4.172h-3.601z"/><path id="point-border-4" data-name="point-border" class="cls-43" d="M127.345 179.465h-4.375v-4.991h4.375zm-3.601-.82h2.826v-3.351h-2.826z"/></g><path id="h-bar-3" data-name="h-bar" class="cls-41" d="M833.137 24.314h41.25"/><path id="h-bar-4" data-name="h-bar" class="cls-41" d="M833.137 110.829h86.287"/><path id="v-bar-fill-3" data-name="v-bar-fill" class="cls-42" d="M853.327 25.323h1.261v86.367h-1.261z"/><path id="v-bar-border-3" data-name="v-bar-border" class="cls-43" d="M854.904 112.116h-1.892V24.898h1.892zm-1.262-.851h.63V25.749h-.63z"/><path id="point-fill-5" data-name="point-fill" class="cls-42" d="M856.217 25.213a2.26 2.26 0 1 1-2.26-2.259 2.26 2.26 0 0 1 2.26 2.26"/><path id="point-border-5" data-name="point-border" class="cls-44" d="M855.738 112.746h-3.561v-3.835h3.56zm-2.93-.63h2.3v-2.574h-2.3z"/><path id="point-border-6" data-name="point-border" class="cls-43" d="M853.957 27.788a2.575 2.575 0 1 1 2.574-2.575 2.578 2.578 0 0 1-2.574 2.575m0-4.519a1.944 1.944 0 1 0 1.944 1.944 1.947 1.947 0 0 0-1.944-1.944"/><path id="point-fill-6" data-name="point-fill" class="cls-42" d="M852.493 109.226h2.931v3.205h-2.931z"/><g id="height-gk"><path id="h-bar-top" class="cls-41" d="M547.435 24.314h37.009"/><path id="h-bar-bottom-2" data-name="h-bar-bottom" class="cls-41" d="M547.435 109.772h37.009"/><path id="v-bar-fill-4" data-name="v-bar-fill" class="cls-42" d="M567.625 25.286h1.261v85.162h-1.261z"/><path id="v-bar-border-4" data-name="v-bar-border" class="cls-43" d="M569.2 110.868h-1.89V24.867h1.891zm-1.26-.839h.63V25.706h-.63z"/><path id="point-fill-7" data-name="point-fill" class="cls-42" d="M570.514 25.177a2.26 2.26 0 1 1-2.259-2.228 2.244 2.244 0 0 1 2.26 2.228"/><path id="point-border-7" data-name="point-border" class="cls-43" d="M568.255 27.716a2.54 2.54 0 1 1 2.574-2.539 2.56 2.56 0 0 1-2.574 2.54m0-4.457a1.917 1.917 0 1 0 1.944 1.917 1.932 1.932 0 0 0-1.944-1.917"/><path id="point-fill-8" data-name="point-fill" class="cls-42" d="M566.79 108.019h2.931v3.16h-2.931z"/><path id="point-border-8" data-name="point-border" class="cls-43" d="M570.036 111.49h-3.561v-3.782h3.56zm-2.931-.622h2.3v-2.539h-2.3z"/></g></g></svg>