<svg id="Layer_1" data-name="Layer 1" xmlns="http://www.w3.org/2000/svg" viewBox="0 0 794.11 207.95"><defs><style>.cls-1{fill:#c5093d;}.cls-2{fill:#c41f40;}</style></defs><path class="cls-1" d="M276.35,117.71h6.74l-23.56,30,26.25,33.11h-7.23l-22.81-28.75-8.07,10V180.8h-6V117.71h6v36.35Z" transform="translate(-0.03 0.13)"/><path class="cls-1" d="M324.29,117.71h6.12v63.06h-6.12Z" transform="translate(-0.03 0.13)"/><path class="cls-1" d="M388.46,123.09H368.89v-5.38H414v5.38H394.49v57.69h-6Z" transform="translate(-0.03 0.13)"/><path class="cls-1" d="M443.73,149.24c0-18.73,14-32.27,31.9-32.27,10.67,0,19.11,4.36,24.76,11.78l-4.64,3.34c-4.73-6.12-11.41-9.65-20.22-9.65-14.65,0-25.5,11.5-25.5,26.8,0,15.49,11,26.8,26,26.8a25.78,25.78,0,0,0,21.42-10.48l4.73,3.34c-6.21,8.16-15,12.61-26.34,12.61C457.74,181.52,443.64,168,443.73,149.24Z" transform="translate(-0.03 0.13)"/><path class="cls-1" d="M581.73,117.71h6v63.06h-6V160H547.32v20.77h-6V117.71h6v36.91h34.41Z" transform="translate(-0.03 0.13)"/><path class="cls-1" d="M631.61,117.71h38v5.38h-32v31.53h28.57v5.27H637.64v15.49h33.3v5.38H631.61Z" transform="translate(-0.03 0.13)"/><path class="cls-1" d="M717.09,131.16v49.62h-5.66V116.41H712l42.48,50.92V117.71h5.66v64.36h-.56Z" transform="translate(-0.03 0.13)"/><path d="M241.59,7.05h61.22V20.77H257.09v30.9h41.73V65.39H257.09v39.85h-15.5Z" transform="translate(-0.03 0.13)"/><path d="M359.85,86.89H320l-7.65,18.34h-15.6L339.75,5h.87l43.17,100.2H367.5ZM325.63,73.32h28.59L340.09,39Z" transform="translate(-0.03 0.13)"/><path d="M409.09,40.69v64.54H394.65V5.61h1.16l63,66V7.05h14.44v99.63h-1.16Z" transform="translate(-0.03 0.13)"/><path d="M513.48,20.77H484.32V7.05h73.77V20.77H528.93v84.47H513.48Z" transform="translate(-0.03 0.13)"/><path d="M613.26,86.89H573.41l-7.65,18.34h-15.6L593.16,5h.93l43.17,100.2H620.91ZM579,73.32h28.59L593.48,39Z" transform="translate(-0.03 0.13)"/><path d="M653.54,79.39c4.48,8.52,12.13,13.28,22.24,13.28,10.4,0,17.33-4.91,17.33-12.85,0-9.24-7.07-12.7-15.74-16.6l-6.79-3c-14.44-6.35-24.4-13.57-24.4-28.88,0-15,11.41-25.56,28.15-25.56,13.57,0,22.67,5,28.88,15.45l-11.69,7.66c-3.75-6.35-9.1-9.53-16.89-9.53-8.37,0-13.43,4.62-13.43,11.4,0,7.8,4.91,10.54,15.59,15.31l6.79,3c14.87,6.64,24.83,13.72,24.83,30.32,0,18-13.86,27.15-32.49,27.15-16.75,0-28.73-8.09-35.37-20.65Z" transform="translate(-0.03 0.13)"/><path d="M711.16,7.05h17l25.12,44L778,7.05h16.17L760.79,66v39.27H745.38V66.11Z" transform="translate(-0.03 0.13)"/><rect x="237.17" y="198.28" width="524.4" height="3.83"/><path class="cls-2" d="M128.39,143.53a1.88,1.88,0,0,0-1.41.54c-.64.64-.71,1.69-.71,3s.07,2.35.71,3a1.88,1.88,0,0,0,1.41.54,1.93,1.93,0,0,0,1.43-.54c.63-.64.71-1.72.71-3a4.26,4.26,0,0,0-.71-3A1.92,1.92,0,0,0,128.39,143.53ZM81.22,90.61a6.87,6.87,0,0,0-1-2.5L80,87.82a5.37,5.37,0,0,0-.36-.4q-.2-.2-.39-.36A5.5,5.5,0,0,0,78,86.3l-.44-.17a6.8,6.8,0,0,0-1-.3q-.4-.07-.83-.11a5.07,5.07,0,0,0-.9,0,9.74,9.74,0,0,0-1.77.15,8.23,8.23,0,0,0-1.59.46A9,9,0,0,0,70,87.1a11.2,11.2,0,0,0-1,.75l-.37.31q-.3.27-.58.57a11.73,11.73,0,0,0-1.49,2q-.22.36-.42.73a17.4,17.4,0,0,0-1,2.17l-.1.26a27.36,27.36,0,0,0-.86,2.73q-.13.48-.25,1c-.32,1.31-.61,2.71-.89,4.18l-.21,1.08-.2,1.06c-.12.7-.24,1.38-.33,2s-.18,1.32-.23,2-.1,1.24-.11,1.83v.85h0a12.71,12.71,0,0,0,.23,2.35v.18a8.69,8.69,0,0,0,.28,1,6.4,6.4,0,0,0,.7,1.42,6.24,6.24,0,0,0,.73.82,2.83,2.83,0,0,0,.25.24l.29.21a5.14,5.14,0,0,0,.93.56,6.47,6.47,0,0,0,.71.27,7.64,7.64,0,0,0,.77.19,9.34,9.34,0,0,0,1.76.14,11.93,11.93,0,0,0,1.79-.18,9.29,9.29,0,0,0,1.64-.5,8.43,8.43,0,0,0,1.49-.81,10.66,10.66,0,0,0,1.38-1.1q.3-.28.58-.58a11.8,11.8,0,0,0,1.47-2,18.41,18.41,0,0,0,1.48-3.22c.23-.64.44-1.31.64-2s.46-1.52.65-2.34c.27-1.16.51-2.38.74-3.65.11-.64.22-1.27.32-1.88h0c.12-.7.23-1.37.32-2v-.14c.09-.66.17-1.29.22-1.91a5.72,5.72,0,0,1,.07-.9,2.72,2.72,0,0,0,0-.87,14.36,14.36,0,0,0-.12-2.41,5.31,5.31,0,0,0-.11-.85ZM80,143.32a2.14,2.14,0,0,0-2,1.26,3.49,3.49,0,0,0-.28,1.32h4.65a3.37,3.37,0,0,0-.28-1.32,2.13,2.13,0,0,0-2.1-1.25Zm92.68-54.14A6.08,6.08,0,0,0,172,88a5.51,5.51,0,0,0-.46-.57,5.74,5.74,0,0,0-.53-.5,5.39,5.39,0,0,0-1.24-.76,5.58,5.58,0,0,0-.71-.28,6.4,6.4,0,0,0-.78-.19,9.34,9.34,0,0,0-1.74-.16h-.48a3.28,3.28,0,0,0-.89.08l-.43.07a8.27,8.27,0,0,0-1.6.46,10,10,0,0,0-1.47.77A11,11,0,0,0,160.34,88a10.41,10.41,0,0,0-1.13,1.18,12.68,12.68,0,0,0-1,1.36c-.22.36-.43.75-.63,1.14a19.32,19.32,0,0,0-.89,2.06c-.08.21-.16.44-.23.66-.33,1-.62,2-.89,3.09-.32,1.33-.61,2.74-.9,4.22s-.55,2.88-.74,4.24a32.92,32.92,0,0,0-.36,3.8,15.72,15.72,0,0,0,.11,2.49q0,.39.12.76v.18a7.17,7.17,0,0,0,1,2.4,5.82,5.82,0,0,0,1,1.07l.28.23.41.27a5.17,5.17,0,0,0,.53.28l.18.07a6.74,6.74,0,0,0,1.32.39,9.13,9.13,0,0,0,1.77.14,10.68,10.68,0,0,0,1.81-.19,9.29,9.29,0,0,0,1.66-.5,8.71,8.71,0,0,0,1.52-.82,10.18,10.18,0,0,0,1.38-1.11,11.4,11.4,0,0,0,1.91-2.34l.16-.26q.22-.37.42-.76t.39-.8c.17-.38.33-.77.48-1.16l.2-.53c.08-.21.15-.43.22-.65q.22-.66.42-1.35c.24-.77.46-1.56.66-2.39.14-.59.27-1.19.39-1.81s.24-1.25.36-1.89.23-1.29.32-1.91q.1-.56.18-1.1l.16-1.08a32.06,32.06,0,0,0,.32-3.72,14.77,14.77,0,0,0-.11-2.34,3.61,3.61,0,0,0-.14-.81,8,8,0,0,0-.35-1.32Zm26.6-26.6h0a9,9,0,0,0-1.66.48,7,7,0,0,0-.78.37l-.38.21-.35.25-.36.25a11.69,11.69,0,0,0-1,.87,11.23,11.23,0,0,0-1.7,1.92q-.25.35-.48.73a16.94,16.94,0,0,0-.85,1.58q-.39.83-.72,1.74a36.88,36.88,0,0,0-1.17,3.9q-.24,1-.47,2.14t-.45,2.26c0,.26-.2,1.14-.43,2.44l-.34,2-.19,1.13L187.35,88l-.46,2.72-.35,2.09L186,96.23l-1.63,9.29h0l0,.3v.24l-.1.52c-.13.75-.21,1.46-.28,2.15,0,.31-.07.59-.08.79s0,.45,0,.64v.19a1.16,1.16,0,0,1,0,.12V111a9.42,9.42,0,0,0,.13,1.51,6.87,6.87,0,0,0,.41,1.4,5.2,5.2,0,0,0,.41.8,6,6,0,0,0,.38.49,4.69,4.69,0,0,0,.43.43,4.6,4.6,0,0,0,1,.68,5.33,5.33,0,0,0,1.25.41h.23l-3.29,10.53h-1l-.91,0a16.17,16.17,0,0,1-2.51-.39l-.76-.2a12.41,12.41,0,0,1-1.43-.52l-.67-.32-.38-.23-.09-.06c-.3-.16-.6-.32-.89-.49a9.86,9.86,0,0,1-.83-.54,10.88,10.88,0,0,1-2.08-2,10,10,0,0,1-.65-.92,11,11,0,0,1-.55-1q-.25-.51-.45-1a8.88,8.88,0,0,1-.36-1.1q-.4.7-.88,1.39a17.12,17.12,0,0,1-1.06,1.36q-.51.57-1,1.08v.06l-.21.18-.53.47h0l-.57.46-.84.64c-.28.21-.56.39-.84.57a15.9,15.9,0,0,1-3.07,1.54,15.43,15.43,0,0,1-1.75.52,15.11,15.11,0,0,1-1.52.29,21.08,21.08,0,0,1-3.64.16,18.45,18.45,0,0,1-3.42-.44l-.8-.21a15,15,0,0,1-2.26-.82l-.7-.34c-.31-.17-.61-.34-.91-.53s-.66-.44-1-.67a10.26,10.26,0,0,1-2-2,10.38,10.38,0,0,1-1.13-2l-.15-.34a12.69,12.69,0,0,1-.5-1.48l-.07-.26a2.27,2.27,0,0,0-.12-.5,17.62,17.62,0,0,1-.31-1.93,3.85,3.85,0,0,0-.06-.67,27.49,27.49,0,0,1,0-2.77,28.31,28.31,0,0,1,.21-2.87c.1-1,.24-1.94.4-2.91s.34-1.94.53-2.9.38-1.92.58-2.85c.39-1.86.8-3.8,1.28-5.71.36-1.44.77-2.86,1.24-4.25q.24-.69.5-1.37t.55-1.34q.29-.66.6-1.3c.25-.51.52-1,.81-1.48l.59-1a17.56,17.56,0,0,1,2.64-3.2,13.7,13.7,0,0,1,1-.91,14.53,14.53,0,0,1,1.27-.92,15.78,15.78,0,0,1,1.39-.81,18.47,18.47,0,0,1,3-1.23,18.71,18.71,0,0,1,2.47-.58l.85-.13a20,20,0,0,1,2.59-.14h.84a19.5,19.5,0,0,1,3.36.46,12.84,12.84,0,0,1,2.2.7l.67.31q.33.16.64.35a10.64,10.64,0,0,1,1.76,1.31A10.89,10.89,0,0,1,175.19,81q.21.28.41.59c.1-.69.2-1.4.33-2.12.16-.91.35-1.84.56-2.79s.42-1.91.65-2.89l.34-1.48q.35-1.46.71-2.83.18-.69.37-1.35c.39-1.33.79-2.62,1.24-3.82q.22-.6.46-1.18c.22-.53.45-1,.69-1.54l.13-.26.18-.37.07-.13.31-.58c.26-.46.53-.92.82-1.36l.41-.58q.42-.57.89-1.1l.47-.52a16.9,16.9,0,0,1,7.87-5c.5-.14,1-.26,1.55-.36A103.91,103.91,0,0,0,10.92,150.08l.38-.19a11.48,11.48,0,0,0,2.5-1.69A11.63,11.63,0,0,0,15,147a11.88,11.88,0,0,0,1-1.43l.07-.09.1-.15c.23-.36.44-.74.64-1.12s.27-.53.39-.81.34-.79.49-1.21a30.32,30.32,0,0,0,1.07-3.71l1.13-6.13.14-.75.94-5.12.35-1.89,1.11-6,.19-1L23,115.5l.38-2.08.38-2.06,1.09-5.93.34-1.84.32-1.75,1.66-9H20.27l3.38-11.43H29l.58-3c.06-.41.12-.81.2-1.22l.17-1c.24-1.37.5-2.89.78-4.18l.14-.62.14-.58c.2-.83.39-1.55.6-2.22.1-.32.2-.64.3-.94.23-.7.45-1.36.69-2s.48-1.22.73-1.78.65-1.34,1-2q.28-.51.58-1c.38-.63.78-1.24,1.21-1.82a26,26,0,0,1,2.76-3.17l1-1,.12-.1c.49-.42,1-.84,1.52-1.23s1.16-.84,1.77-1.22a25.69,25.69,0,0,1,4.15-2.16l1.21-.46c.81-.29,1.63-.53,2.46-.74l1.24-.28a28.41,28.41,0,0,1,5.6-.55h.24a26.17,26.17,0,0,1,4,.3q.63.1,1.24.23c.32.07.63.14.93.23l.88.26h.1L61.61,61.25h0l-.16-.09L61.22,61a8.58,8.58,0,0,0-1.87-.61,10.81,10.81,0,0,0-2.25-.23h-.7a6.05,6.05,0,0,0-1.21.12l-.59.1-.42.09-.24.06-.72.22-.31.11-.38.14h-.16c-.26.1-.52.21-.77.33a7.18,7.18,0,0,0-.76.42,11.71,11.71,0,0,0-1.42,1,10.26,10.26,0,0,0-1.14,1.13q-.27.31-.51.64t-.48.7q-.22.35-.42.71t-.39.75a17.32,17.32,0,0,0-.68,1.62,29.58,29.58,0,0,0-1,3.63c0,.13-.14.75-.26,1.44l-.12.7-.1.55-.15.84v.2l-.77,5.45h8.21l-2,6.74-1.52,5H41.36l-6.27,34.56-1.61,8.4c-.23,1.24-.45,2.36-.69,3.44-.1.43-.2.86-.31,1.29l-.17.65-.18.63c-.4,1.39-.83,2.67-1.3,3.86q-.27.68-.56,1.33c-.41.9-.85,1.75-1.32,2.56-.37.64-.78,1.26-1.2,1.86l-.32.47a26.12,26.12,0,0,1-1.81,2.2q-.48.53-1,1t-1.07,1l-.83.7a28.22,28.22,0,0,1-2.64,1.91q-.78.5-1.62,1l-.84.43-.86.41a103.91,103.91,0,0,0,182.44-98Zm-130,90.58H66.2v-7.4a2,2,0,1,0-4.07,0v7.4h-3V140.89h3V142a4.21,4.21,0,0,1,3-1.22A4,4,0,0,1,68,141.87a4.51,4.51,0,0,1,1.25,3.47ZM85.36,148H77.7A2.53,2.53,0,0,0,80,150.72h.36a3.38,3.38,0,0,0,2.77-1.15L85,151.38a5.84,5.84,0,0,1-4.65,1.93c-2.89,0-5.66-1.31-5.66-6.27,0-4,2.16-6.25,5.33-6.25,3.41,0,5.34,2.49,5.34,5.85Zm1.82-31.1a23.14,23.14,0,0,1-1.56,1.93q-.42.47-.88.92l-1,.9q-.68.61-1.44,1.2T80.74,123c-.57.36-1.17.72-1.79,1.06a18.55,18.55,0,0,1-2,.94,24.67,24.67,0,0,1-2.48.89c-.64.19-1.3.37-2,.53s-1.53.28-2.33.38c-.49.06-1,.11-1.49.14s-.9,0-1.36,0a12.16,12.16,0,0,1-1.35,0,22.5,22.5,0,0,1-3.65-.42q-.56-.11-1.09-.25c-.45-.12-.88-.25-1.29-.4a15.79,15.79,0,0,1-1.62-.66,14.06,14.06,0,0,1-4.31-3A14.29,14.29,0,0,1,53,121q-.34-.44-.64-.89a14,14,0,0,1-1-1.87q-.22-.48-.41-1a15.2,15.2,0,0,1-.59-2.09A18.83,18.83,0,0,1,50,112.9q-.1-1.18-.08-2.47t.15-2.69c.17-1.89.47-3.94.89-6.2s.88-4.29,1.41-6.13c.26-.93.55-1.82.85-2.66s.63-1.65,1-2.43q.27-.58.56-1.13a23.26,23.26,0,0,1,2-3.13l.77-1a9.45,9.45,0,0,1,.83-.93,24.46,24.46,0,0,1,4.92-4l.87-.52q.89-.5,1.87-.94l1-.42c.68-.27,1.39-.51,2.12-.73A22.53,22.53,0,0,1,71.46,77l1.21-.2a25.09,25.09,0,0,1,3.87-.24,22.12,22.12,0,0,1,4.87.53,17.71,17.71,0,0,1,3.91,1.33,15.06,15.06,0,0,1,3,1.92,13.42,13.42,0,0,1,2.18,2.27,14.29,14.29,0,0,1,1.66,2.69q.22.47.41,1t.33,1a16.08,16.08,0,0,1,.47,2.1q.09.55.14,1.12t.08,1.16v2.5a11.64,11.64,0,0,1-.08,1.34c-.14,1.83-.42,3.82-.8,6s-.79,4.24-1.27,6.09a33.93,33.93,0,0,1-1.74,5.09A23.27,23.27,0,0,1,87.18,116.89Zm9.2,26.68H94.22v5.87c0,.71.33,1.1,1.06,1.1h1.1v2.59H94.71a3.32,3.32,0,0,1-3.55-3.5v-6.06H89.87v-2.33h1.29v-3.62h3v3.62h2.16Zm18.77,9.56h-2.52l-2.54-7.64-2.56,7.68H105l-3.79-12.28h3.25l2,7.56,2.49-7.56h2.23l2.51,7.56,2-7.56h3.22Zm17-1.36a5.08,5.08,0,0,1-3.8,1.5,5,5,0,0,1-3.79-1.5c-1.1-1.16-1.39-2.55-1.39-4.78s.28-3.6,1.39-4.75a5,5,0,0,1,3.79-1.5,5.09,5.09,0,0,1,3.8,1.5c1.11,1.15,1.39,2.54,1.39,4.75s-.24,3.67-1.35,4.82Zm5.26-44.28a34.68,34.68,0,0,1-1.74,5.09,23.38,23.38,0,0,1-2.43,4.3c-.37.51-.77,1-1.18,1.5a16.24,16.24,0,0,1-1.25,1.36l-.94.9a25.08,25.08,0,0,1-3.06,2.35,24,24,0,0,1-3.76,2l-1,.42c-.79.29-1.61.54-2.47.77l-1,.23a26.38,26.38,0,0,1-5.18.56,23.83,23.83,0,0,1-3.85-.23l-1.15-.2a17.69,17.69,0,0,1-4-1.3,14.35,14.35,0,0,1-7.43-8,16.89,16.89,0,0,1-.88-4.35c-.06-.79-.09-1.61-.08-2.47s.06-1.76.15-2.69c.17-1.89.47-3.94.88-6.21.31-1.69.65-3.25,1-4.71q.19-.73.38-1.42T98.83,94c.28-.89.59-1.73.92-2.54q.25-.61.51-1.19a25.67,25.67,0,0,1,1.58-2.87,12.77,12.77,0,0,1,1-1.39,24,24,0,0,1,1.6-1.89q.43-.46.89-.9t1-.88c.45-.39.94-.78,1.45-1.16s1-.75,1.62-1.1l.64-.38c.37-.22.75-.43,1.15-.63l1-.46,1-.43,1-.38,1.08-.34a23.14,23.14,0,0,1,2.29-.55,24.65,24.65,0,0,1,5.08-.44h0a24.47,24.47,0,0,1,2.56.14,20.17,20.17,0,0,1,2.31.38,17.8,17.8,0,0,1,3.91,1.33,14.62,14.62,0,0,1,3,1.92,13.31,13.31,0,0,1,2.18,2.27,13.85,13.85,0,0,1,2.06,3.64,14.39,14.39,0,0,1,.6,2,17.92,17.92,0,0,1,.34,2.19,28.24,28.24,0,0,1,0,5c-.14,1.83-.42,3.82-.8,6s-.86,4.31-1.35,6.16Zm8,36.73a2,2,0,0,0-3.6,1.53v7.38h-3V140.89h3v1.17a4.14,4.14,0,0,1,3.08-1.31,3.69,3.69,0,0,1,2.89,1.15Zm14.39,8.91-3-5.1-1.29,1.46v3.65h-3v-16.7h3v9.45l4.07-5h3.69l-4.37,5,4.7,7.31ZM127.3,90.57q-.07-.35-.17-.69a6.39,6.39,0,0,0-.85-1.82l-.22-.29a5.14,5.14,0,0,0-.36-.4q-.2-.2-.39-.36c-.13-.11-.23-.16-.34-.24a5.3,5.3,0,0,0-.47-.29,4.23,4.23,0,0,0-.42-.22,6.45,6.45,0,0,0-1.48-.46,9.07,9.07,0,0,0-1.73-.15,9.76,9.76,0,0,0-1.78.24,8.53,8.53,0,0,0-1.59.46,9.43,9.43,0,0,0-1.45.76q-.35.23-.69.49a8.68,8.68,0,0,0-.67.57q-.3.27-.58.56a11.12,11.12,0,0,0-1,1.26q-.24.34-.46.69a16.44,16.44,0,0,0-1,1.87q-.21.47-.4,1l-.13.33A35,35,0,0,0,110,97.59c-.32,1.31-.61,2.71-.89,4.18-.14.72-.28,1.44-.4,2.14s-.24,1.39-.33,2a6,6,0,0,1-.12.85V107c-.07.61-.13,1.21-.17,1.79v1.76a13,13,0,0,0,.24,2.36,7.75,7.75,0,0,0,.68,2,6.21,6.21,0,0,0,.34.58l.17.2a5.76,5.76,0,0,0,.83.86,5,5,0,0,0,.58.43,5.3,5.3,0,0,0,.64.35,6.37,6.37,0,0,0,.71.27,7.44,7.44,0,0,0,.77.19,8.25,8.25,0,0,0,.84.11h.91a10.9,10.9,0,0,0,1.79-.19,8.53,8.53,0,0,0,.84-.21,7.63,7.63,0,0,0,.8-.29l.17-.08a8.17,8.17,0,0,0,1.33-.73l.41-.3a10.2,10.2,0,0,0,1-.8q.3-.28.58-.58a11.56,11.56,0,0,0,1.2-1.57c.09-.14.19-.28.28-.43s.29-.49.42-.75a20.34,20.34,0,0,0,1.06-2.47c.23-.63.43-1.29.63-2s.46-1.54.65-2.37c.28-1.16.51-2.38.74-3.65.11-.65.22-1.28.31-1.89-.11.65-.23,1.31-.36,2,.13-.68.25-1.34.36-2s.25-1.46.34-2.16q.07-.49.12-1c.07-.63.13-1.25.16-1.84V92.12a10.86,10.86,0,0,0-.32-1.51Z" transform="translate(-0.03 0.13)"/><path class="cls-1" d="M201.91,52.26v5.19h-.76V52.26h-1.56v-.69h3.87v.69Zm7.21,5.19V52.6l-1.63,4.85h-.67L205.2,52.6v4.85h-.75V51.57h1.11l1.6,4.9,1.61-4.9h1.11v5.88Z" transform="translate(-0.03 0.13)"/></svg>
