<svg id="Layer_1" data-name="Layer 1" xmlns="http://www.w3.org/2000/svg" xmlns:xlink="http://www.w3.org/1999/xlink" viewBox="0 0 12 20"><defs><style>.cls-1{fill:#fff;}.cls-2{mask:url(#mask);}.cls-3{fill:#ff17a2;}</style><mask id="mask" x="-4" y="0" width="20" height="20" maskUnits="userSpaceOnUse"><g id="mask-2"><path id="path-1" class="cls-1" d="M2.59,10l8.53-8.53A.87.87,0,0,0,11.17.23.88.88,0,0,0,9.93.28L.87,9.34a.87.87,0,0,0-.19.28.85.85,0,0,0,0,.76.87.87,0,0,0,.19.28l9.06,9.06a.88.88,0,0,0,1.24.05.87.87,0,0,0-.05-1.24Z"/></g></mask></defs><title>Artboard 1</title><g id="v3"><g id="Detail-_MD_" data-name="Detail-[MD]"><g id="Group"><g id="Controls"><g id="Icons-_-Caret" data-name="Icons-/-Caret"><g id="Combined-Shape"><path id="path-1-2" data-name="path-1" d="M2.59,10l8.53-8.53A.87.87,0,0,0,11.17.23.88.88,0,0,0,9.93.28L.87,9.34a.87.87,0,0,0-.19.28.85.85,0,0,0,0,.76.87.87,0,0,0,.19.28l9.06,9.06a.88.88,0,0,0,1.24.05.87.87,0,0,0-.05-1.24Z"/></g><g class="cls-2"><g id="Colors-_-Pink" data-name="Colors-/-Pink"><rect id="Pink" class="cls-3" x="-4" width="20" height="20"/></g></g></g></g></g></g></g></svg>